<?xml version="1.0" encoding="UTF-8"?><svg xmlns="http://www.w3.org/2000/svg" xmlns:xlink="http://www.w3.org/1999/xlink" viewBox="0 0 369.73 1029.98"><defs><style>.cls-1{fill:#2a1e16;}.cls-1,.cls-2,.cls-3,.cls-4,.cls-5,.cls-6,.cls-7,.cls-8,.cls-9,.cls-10,.cls-11,.cls-12,.cls-13,.cls-14,.cls-15{stroke-width:0px;}.cls-16{fill:#c8beb6;stroke:#a39285;}.cls-16,.cls-17,.cls-18,.cls-19,.cls-20,.cls-21,.cls-22,.cls-23,.cls-24,.cls-25,.cls-26,.cls-27,.cls-28,.cls-29,.cls-30,.cls-31,.cls-32,.cls-33,.cls-34,.cls-35,.cls-36,.cls-37,.cls-38,.cls-39{stroke-miterlimit:10;}.cls-16,.cls-17,.cls-20,.cls-21,.cls-22,.cls-29,.cls-31,.cls-32,.cls-34,.cls-35,.cls-39{stroke-width:.25px;}.cls-2{fill:#c2c2c2;}.cls-17{fill:url(#radial-gradient);}.cls-17,.cls-20{stroke:#665f42;}.cls-18,.cls-21,.cls-22,.cls-26,.cls-29,.cls-31,.cls-32,.cls-34,.cls-39{stroke:#231f20;}.cls-18,.cls-25,.cls-29,.cls-35,.cls-38{fill:none;}.cls-19,.cls-6{fill:#000;}.cls-19,.cls-30,.cls-33{stroke:#000;}.cls-3{fill:#3d332b;}.cls-20{fill:url(#radial-gradient-4);}.cls-4{fill:#170a00;}.cls-21,.cls-26{fill:#fff;}.cls-22,.cls-23{fill:#bc9a86;}.cls-23{stroke:#bc9a86;}.cls-5{fill:#9c9997;}.cls-7{fill:#afaeac;}.cls-24{fill:#7c4200;stroke:#b7907d;}.cls-25{stroke:#fff;stroke-width:3px;}.cls-27{stroke:#949494;stroke-width:.75px;}.cls-27,.cls-33{fill:#666;}.cls-28{stroke:#b0b0b0;}.cls-28,.cls-34{fill:#c1c2b2;}.cls-30{fill:#e2e1e0;}.cls-31{fill:url(#linear-gradient);}.cls-32{fill:#141618;}.cls-8{fill:#bf903e;}.cls-9{fill:url(#linear-gradient-2);}.cls-10{fill:url(#linear-gradient-3);}.cls-11{fill:#76706c;}.cls-12{fill:#504741;}.cls-13{fill:#898581;}.cls-35{stroke:#603e00;}.cls-36{fill:url(#radial-gradient-2);stroke:url(#radial-gradient-3);}.cls-37{fill:url(#radial-gradient-5);stroke:url(#radial-gradient-6);}.cls-14{fill:#635c56;}.cls-38{opacity:.6;stroke:#a18164;stroke-width:2px;}.cls-15{fill:#231f20;}.cls-39{fill:#c9ac9b;}</style><linearGradient id="linear-gradient" x1="108.15" y1="80.94" x2="254.41" y2="80.94" gradientUnits="userSpaceOnUse"><stop offset="0" stop-color="#6c563d"/><stop offset=".29" stop-color="#b19478"/><stop offset=".55" stop-color="#af8777"/><stop offset=".78" stop-color="#b19478"/><stop offset="1" stop-color="#7d694f"/></linearGradient><linearGradient id="linear-gradient-2" x1="191.91" y1="62.19" x2="217.93" y2="62.19" gradientTransform="translate(362.89 -6.38) rotate(178.59) scale(1 -1)" gradientUnits="userSpaceOnUse"><stop offset=".31" stop-color="#67533f"/><stop offset="1" stop-color="#72533f"/></linearGradient><linearGradient id="linear-gradient-3" x1="177.79" y1="61.45" x2="203.8" y2="61.45" gradientTransform="translate(1.81 -2.97) rotate(.74)" xlink:href="#linear-gradient-2"/><radialGradient id="radial-gradient" cx="240.03" cy="67.87" fx="240.03" fy="67.87" r="3.2" gradientTransform="translate(396.07 -7.3) rotate(177.91) scale(1 -1)" gradientUnits="userSpaceOnUse"><stop offset="0" stop-color="#6e5c48"/><stop offset="1" stop-color="#706449"/></radialGradient><radialGradient id="radial-gradient-2" cx="239.58" cy="67.59" fx="239.58" fy="67.59" r="1.14" gradientTransform="translate(396.07 -7.3) rotate(177.91) scale(1 -1)" gradientUnits="userSpaceOnUse"><stop offset=".28" stop-color="#6c563d"/><stop offset=".52" stop-color="#6e5f3e"/></radialGradient><radialGradient id="radial-gradient-3" cx="239.58" cy="67.59" fx="239.58" fy="67.59" r="1.64" gradientTransform="translate(396.07 -7.3) rotate(177.91) scale(1 -1)" gradientUnits="userSpaceOnUse"><stop offset="0" stop-color="#6c563d"/><stop offset=".52" stop-color="#95a756"/><stop offset="1" stop-color="#96a957"/></radialGradient><radialGradient id="radial-gradient-4" cx="204.17" cy="69.82" fx="204.17" fy="69.82" gradientTransform="translate(-8.1 -7.3) rotate(2.09)" xlink:href="#radial-gradient"/><radialGradient id="radial-gradient-5" cx="203.72" cy="69.53" fx="203.72" fy="69.53" r="1.14" gradientTransform="translate(-8.1 -7.3) rotate(2.09)" xlink:href="#radial-gradient-2"/><radialGradient id="radial-gradient-6" cx="203.72" cy="69.53" fx="203.72" fy="69.53" r="1.64" gradientTransform="translate(-8.1 -7.3) rotate(2.09)" xlink:href="#radial-gradient-3"/></defs><g id="Krop"><path class="cls-22" d="M144.31,125.1s1.94,15.33,2.33,23.27c.09,1.89,1.8,5.83,1.42,6.21,0,0,11.87,7.06,26.62,8.41s32.36-2.98,41.28-13.72c0,0-10.82-12.47-10.59-31.8"/><path class="cls-39" d="M169.76,31.12s26.86-11.59,31.82,12.19c0,0,14.6,25.02,8.32,67.3,0,0-15.86,27.09-29.07,27.09,0,0-43.61-8.92-42.95-30.06,0,0,1.29-57.68,5.58-61.97,0,0-.46-23.8,26.29-14.55Z"/><path class="cls-31" d="M148.05,153.98l-24.79,1.3-15.11.79c4.02-.7,8.07-39.24,8.07-39.24-3.65-14.95,5.87-71.95,5.87-71.95C135.2-10.18,167.21,1.07,167.21,1.07c71.33-4.87,63.84,103.54,63.84,103.54,11.01,17.24,23.36,57.14,23.36,57.14l-16.52-4.6c-.91-1.92-28.61-10.79-28.61-10.79-2.44.34-3.92-29.05-3.92-29.05,8.06-16.96,5.66-24.3,5.66-24.3-3.28-16.63-9.79-49.45-9.79-49.45-7.53-23.4-31.32-10.33-31.32-10.33,0,0-25.81-6.19-25.87,12.69,0,0-8.31,66.74,3.29,78.41"/><path class="cls-34" d="M216.34,148.78l38.46,12.94-.75-2.37s45.91,6.78,56.66,51.82c0,0,47.58,86.27,41.26,86.57,0,0-51.94,40.41-77.3,23.38,0,0,1.7,27.64,1.43,30.57,0,0,16.81,44.2,15.42,76.94,0,0,10.36,42.56,4.61,55.91,0,0,15.6,20.38-16.22,19.36,0,0-124.55,19.35-148.07,12.76,0,0-63.24-4.39-63.97-12.58,0,0,2.46-59.99,4.27-69.65,0,0,2.25-24.29,3.45-48.36.79-15.92,2.11-29.46,4.51-41.35,0,0,4.85-12.36,3.28-14.51,0,0-1.75,5.24-13.35.81,0,0-66.47-26.32-62.78-31.6,0,0,51.52-115.2,61.27-122.18,0,0,5.59-8.11,17.17-14.12,6.14-3.19,14.92-6.49,23.49-7.26,0,0,5.89-.77,14.69-2.1,6.66-1.01,14.9-1.7,23.43.31,3.75.88,7.26,4.05,12.06,5.91s10.89,2.41,16.2,2.5c20.17.37,41.38-7.89,40.79-13.72Z"/><path class="cls-22" d="M34.33,315.9s-19.14,47.13-18.41,85.09c0,0-7.47,44.78-7.41,48.11,0,0-4.45,50.57-5.54,53.47,0,0-6.39,26.59,0,37.43,0,0,20.14,32.44,31.37,34.26,0,0,1.68-.53,2.15-2.12,0,0,6.8,8.01,5.38-3.97,0,0-9.01-40.7-1.29-47,0,0,2.37,30.41,10.95,27.77,0,0,1.78-26.37-3.87-52.31-1.32-3.48-.05-6.56-4.97-13.44-.98-1.37-1.09-3.67-1.57-5.8-1.44-6.4-.45-15.2.02-21.12.54-6.79,2.98-9.45,4.27-13.4,0,0,14.81-45.16,18.64-52.69,0,0,8.93-32.68,13.98-48.89,1.68-5.4,1.51-8.78,2.33-8.76,3.3.06-46-16.62-46-16.62Z"/><path class="cls-22" d="M277.71,322.82s12.52,61.01,22.84,75.16c0,0,22.99,58.04,25.2,61.22,0,0,9.34,13.1,0,34.44,0,0-8.02,52.89-3.16,63.2,0,0,8.26.56,9.42-14.17,0,0-.03-20.45,2.11-20.85,0,0,9.43,9.4,7.26,28.82,0,0,3.32-.45-2.67,14.14,0,0-13.21,15.52-1.71,13.15,0,0-2.26,4.74,7.8-1.32,0,0,22.01-5.7,24.8-33.95,0,0,.46-47.58-8.38-59.54,0,0-.94-18.77.23-18.99,0,0-11.67-78.47-24.21-119.92,0,0-10.73-32.9-10.73-30.27,0,3.25-48.81,8.88-48.81,8.88Z"/><path class="cls-29" d="M170.37,32.84c-2.08-8.89-6.92-21.39-2.7-32.16"/><path class="cls-22" d="M143.16,943.46s-.4-3.67-.4-3.67c.99-1.35-8.24-27.29-9.77-32.83-.14-.52-.26-1.04-.34-1.57-.72-4.82-9.83-35.38-11.86-42.16-.19-.65-.42-1.29-.7-1.9-3.18-6.91-14.17-52.51-15.52-58.11-.09-.38-.2-.75-.32-1.12-.55-1.68-.95-3.51-1.15-5.65-.52-5.77-1.27-12.03-1.04-14.17.05-.44.05-1.17.03-1.61-.77-14.08,5.5-85.2,5.5-85.2.97-8.3-7.67-56.58-13.2-86.12-2.3-12.27,6.74-23.75,19.21-24.41l46.01-2.42c11.13-.58,20.75,7.77,21.66,18.88,2.08,25.5.12,67.23-.57,80.11-.11,2.13-.6,4.21-1.33,6.22-4.47,12.29-2.72,49.35-2.72,49.35.36,2.95-4.79,44.35-1.79,61.36.12.67.21,1.35.24,2.03l1.33,29.66c.03.65.01,1.31-.05,1.96l-4.72,50.42c-.07.71-.08,1.42-.04,2.13l3.12,54.81s3.7,4.33.86,14.14c0,0-1.42,6.17.25,8.42,0,0,1.11,4.91-2.4,6.3l-.79,1.36-3.7-5.97s.5-9.85-11.75-11.74c0,0-7.44-.78-13,3.35,0,0-2.11-8.09-1.06-11.84Z"/><path class="cls-22" d="M192.8,946.13c1.28-.32,3.12-25.83,3.12-25.83l-2.06-58.09c-3.49-12.85-3.25-61.34-3.25-61.34l1.35-41.86c0-.4,0,.34.03-1.19.45-19.4-.07-51.79-.59-58.29-.06-.69-.22-1.37-.5-2.01-1.33-3.07-5.15-13.29-4.67-21.41,1.44-24.41-.2-64.09-.51-71.26-.02-.54-.1-1.09-.28-1.6-1.34-3.84-1.51-23.74-1.48-35.71.01-4.47,4.45-7.56,8.65-6.03l38.51,14.09c.71.26,1.47.39,2.23.39l39.22-.1c4.07-.01,7.13,3.71,6.33,7.7l-12.72,63.48c-.04.19-.08.38-.14.56-2.2,7.37-5.86,25.09-6.11,39.77-.19,11.21,1.49,20.79,1.93,23.06.06.33.15.64.26.95,7.46,20.53,3.01,67.86.58,83.8-.51,3.33-20.26,74.85-21.49,74.53,0,0-17.16,70.08-15.83,72.18,0,0,.1,13.14-1.2,15.85,0,0-5.71-5.26-11.94-3.15,0,0-4.12,1.79-7.11,9.81-.43,1.15-5.17.33-5.33,1.84,0,0-3.55,5.15-3.55,6.12,0,0,.4-1.02-2.21-1.77,0,0-1.97-5.4-.26-7.62l.41-3.58-1.2-6.22c-.02-.1-.03-.2-.03-.3l-.39-2.01c-.19-1-.21-2.02-.05-3.02l.28-1.77Z"/><path class="cls-32" d="M71.91,507.47s-6.13,46.73-11,69.99c-1.15,5.46-.44,12.2-1.11,14.79-.16.63.16,1.29.77,1.53,7.32,3,43.54,17.2,69.86,15.95,0,0,50.36,1.82,53.05-16.02v-15.79s-4.56,14.91,29.04,20.27c0,0,48.94,14.21,85.55-1.18,0,0,22.18-1.91,15.93-22.7,0,0-8.59-31.8-15.98-74.72l-226.11,7.87Z"/></g><g id="Detaljer"><path class="cls-23" d="M174.31,73.88c.65,2.28-3.12,10.44-3.12,10.44,0,0-7.91,10.72,2.07,8.38,0,0,4.17,2.07,7.28.28,0,0,6.45.22,3.36-6.82,0,0-5.94-7.4-4.78-12.28h-4.83Z"/><ellipse class="cls-8" cx="128.23" cy="221.45" rx="10.44" ry="3.98"/><path class="cls-6" d="M128.23,225.95c-6.25,0-10.96-1.93-10.96-4.49s4.71-4.49,10.96-4.49,10.96,1.93,10.96,4.49-4.71,4.49-10.96,4.49ZM128.23,217.99c-5.85,0-9.93,1.83-9.93,3.46s4.08,3.46,9.93,3.46,9.93-1.82,9.93-3.46-4.08-3.46-9.93-3.46Z"/><path class="cls-6" d="M123.13,218.27c-4.25-4.27-5.84-7.4-4.84-9.59,1.35-2.95,6.96-2.59,7.2-2.58,3.38-.24,5.6.5,6.53,2.19,1.86,3.39-2.38,9.24-2.56,9.48l-.83-.61c1.13-1.54,3.77-6.04,2.49-8.38-.72-1.31-2.61-1.87-5.63-1.66-1.49-.1-5.39.07-6.26,1.98-.54,1.18-.17,3.61,4.63,8.43l-.73.73Z"/><path class="cls-6" d="M125.5,217.81c-.57-.66-1.89-2.29-1.95-3.06l1.03-.08c.04.3.82,1.43,1.71,2.47l-.78.67Z"/><rect class="cls-6" x="126.93" y="214.9" width="1.03" height="2.59" transform="translate(-15.52 9.93) rotate(-4.21)"/><path class="cls-6" d="M137,219.61l-.48-.91c6.02-3.19,7.23-5.46,7.18-6.8-.06-1.6-1.96-2.45-1.98-2.46-2.92-.81-5.33-.57-7.11.74-3.17,2.34-3.34,7.37-3.34,7.42l-1.03-.03c0-.23.18-5.58,3.75-8.22,2.04-1.51,4.76-1.81,8.07-.88.17.07,2.58,1.14,2.66,3.39.09,2.38-2.51,4.98-7.72,7.75Z"/><path class="cls-6" d="M133.91,218.27c-.05-1.3-.08-2.69.13-4.06l1.02.16c-.2,1.27-.17,2.61-.12,3.86l-1.03.04Z"/><path class="cls-6" d="M138.68,221.97v-1.03c4.09-.05,15.21-.88,17.37-4.07.37-.55.45-1.15.23-1.83-.8-.5-5.59-3.11-13.73.81l-.45-.93c9.51-4.58,14.7-.79,14.91-.63l.12.09.05.14c.41,1.06.31,2.04-.28,2.93-2.9,4.29-17.6,4.51-18.22,4.52Z"/><rect class="cls-6" x="137.67" y="218.57" width="3.82" height="1.03" transform="translate(-81.47 82.64) rotate(-25.81)"/><path class="cls-6" d="M156.25,230.02c-2.99,0-8.62-1.18-18.99-6.27l.45-.93c17.57,8.61,20.92,5.67,20.96,5.63,1.17-.84,2.42-1.98,2.14-2.97-.69-2.41-9.27-3.8-14.51-4.1l.06-1.03c1.46.09,14.32.94,15.44,4.85.36,1.25-.45,2.6-2.42,4-.23.23-1.04.81-3.13.81Z"/><path class="cls-6" d="M144.12,223.91c-1.54-.69-3.39-.81-5.19-.92l-.63-.04.07-1.03.62.04c1.8.11,3.84.24,5.55,1.01l-.42.94Z"/><path class="cls-6" d="M151,237.92c-1.86,0-5.24-.97-11.66-4.31l-.13-.07-.07-.12c-1.24-2.02-4.95-7.35-7.24-7.73l.17-1.02c3.04.5,7.13,6.88,7.88,8.08,9.72,5.04,11.87,4.28,12.34,3.71.99-1.19-1.43-5.39-3.47-7.99l.81-.64c.91,1.16,5.33,7.03,3.45,9.29-.35.42-.92.8-2.08.8Z"/><path class="cls-6" d="M140.84,228.34c-.26-.52-3.29-2.19-5.94-3.44l.44-.93c2.3,1.08,6.21,3.05,6.5,4.1l-.99.27Z"/><path class="cls-6" d="M133.19,243.89c-2.19,0-4.58-2.02-7.13-6.02l.87-.55c2.53,3.98,4.87,5.88,6.76,5.49,3.17-.65,4.96-7.56,5.38-10.17l1.02.16c-.07.41-1.67,10.09-6.19,11.02-.23.05-.47.07-.71.07Z"/><path class="cls-6" d="M117.92,246.14c-1.33,0-2.28-.46-2.83-1.36-2.66-4.41,6.4-18.31,7.44-19.88l.86.57c-2.73,4.12-9.38,15.52-7.41,18.78.41.68,1.23.95,2.5.83,2.37-.23,4.27-1.27,5.65-3.08,4.23-5.56,2.37-16.62,2.35-16.73l1.02-.18c.08.47,1.95,11.62-2.54,17.53-1.56,2.05-3.7,3.22-6.36,3.48-.23.02-.45.03-.66.03Z"/><path class="cls-6" d="M132.87,232.32h-1.03c0-3.1-2.77-6.53-2.8-6.56l.8-.65c.12.15,3.04,3.74,3.03,7.22Z"/><path class="cls-6" d="M107.45,243.99c-.09,0-.18,0-.26-.02-.56-.08-1.32-.44-1.72-1.73l-.05-.16.06-.16c.19-.56,4.87-13.74,13.44-18.92l.53.88c-7.75,4.68-12.37,16.67-12.94,18.22.29.78.69.83.82.85,2.41.36,8.53-7.44,11.82-12.42l.86.57c-.89,1.35-8.61,12.9-12.56,12.9Z"/><path class="cls-6" d="M115.87,229.54l-.86-.57c1.41-2.14,3.77-3.63,6.08-4.97l.52.89c-2.2,1.28-4.45,2.69-5.74,4.65Z"/><path class="cls-6" d="M103.12,236.43c-.65,0-1.19-.16-1.52-.55-.7-.81-.88-2.54,3.96-8.66.36-.33,7.36-6.27,12.64-5.29l-.19,1.01c-4.8-.89-11.65,4.92-11.72,4.98-4.62,5.88-4.07,7.1-3.92,7.28.64.75,4.44-.63,7.57-2.38l.5.9c-1.32.74-5.04,2.7-7.34,2.7Z"/><path class="cls-6" d="M117.76,221.48c-2.04-.42-4.13-.48-4.38-.13l-.86-.58c.76-1.13,4.06-.59,5.45-.3l-.21,1.01Z"/><path class="cls-6" d="M117.99,220.98l-7.63-1.74c-3.26-1.2-4.88-2.45-5.03-3.84-.11-1.08.73-1.78,1-1.98,4.41-5.36,8.81-2.64,9.36-2.26,5.14,2.27,5.25,2.96,5.29,3.21l-1.02.16c.01.07.04.1.04.1-.28-.4-2.69-1.64-4.77-2.55l-.1-.06c-.16-.12-3.99-2.89-8.05,2.11l-.12.11s-.67.44-.6,1.06c.06.53.7,1.62,4.3,2.96l7.57,1.72-.23,1Z"/><path class="cls-6" d="M103.25,229.33c-.94,0-1.71-.25-2.3-.75-1.25-1.06-1.22-2.86-1.19-3.34-.4-1.3-.25-2.48.46-3.48,2.31-3.29,9.92-3.53,10.24-3.54l.03,1.03c-.07,0-7.41.23-9.43,3.1-.53.76-.63,1.63-.29,2.67l.03.11v.11s-.19,1.71.81,2.56c.71.59,1.87.66,3.45.21l.28.99c-.78.22-1.48.34-2.11.34Z"/><path class="cls-6" d="M120.97,218.67c-2.21-1.54-4.92-3.23-5.44-3.28.03,0,.11,0,.2-.06l-.57-.86c.29-.19.81-.54,6.4,3.35l-.59.85Z"/><path class="cls-27" d="M4.45,462.71c0,.08,0,.17,0,.25l.2-5.06-.19,4.81Z"/><path class="cls-33" d="M40.93,460.34c-2.38-.65-11.29-2.75-16.24-3.9-.34-.48-.76-.9-1.24-1.25-.73-.53-1.61-.86-2.57-.94h-.03s-2.85-.21-2.85-.21l-6.98-.53c-1.38-.1-2.71.33-3.76,1.23-1.05.9-1.69,2.16-1.79,3.53l-.38,5.05-.17,2.22c-.1,1.38.33,2.71,1.23,3.76.9,1.05,2.14,1.68,3.5,1.79h.03s9.82.75,9.82.75c2.06.15,3.93-.93,4.89-2.61.17-.14.36-.25.59-.35,3.58-1.55,12.71,1.85,14.64,2.6.18.07.37-.06.38-.25l.92-10.9h0Z"/><path class="cls-9" d="M171.69,63.14l.82-1.72c.18-.39-.04-.84-.47-.92-2.6-.5-10.69-1.98-15.38-2.24-1.65-.09-2.71-.15-3.35.05,0,0-6.31,3.21-6.7,5.42,0,0,4.06-1.96,6.52-2.67.36-.1.73-.15,1.1-.14l4.09.08c.89.02,1.78.11,2.65.29l10.33,2.05c.16.03.32-.05.39-.19Z"/><path class="cls-10" d="M179.69,63.39l-.84-1.71c-.19-.38.04-.84.45-.93,2.59-.53,10.67-2.11,15.35-2.42,1.65-.11,2.7-.18,3.35.01,0,0,6.35,3.14,6.76,5.34,0,0-4.08-1.92-6.55-2.59-.36-.1-.73-.14-1.1-.13l-4.08.13c-.89.03-1.78.13-2.65.32l-10.3,2.17c-.16.03-.32-.04-.39-.19Z"/><path class="cls-6" d="M157.49,65.04c.34.72.88,1.74,1.26,2.45.22.4.39.84.68,1.19.29.35.62.7,1.04.96,0,0,.07-.04.07-.04-.05-.38-.17-.71-.3-1.03-.21-.54-.6-.98-.96-1.42-.49-.64-1.2-1.54-1.72-2.15,0,0-.07.04-.07.04h0Z"/><path class="cls-6" d="M158.07,65.28c.34.72.88,1.74,1.26,2.45.22.4.39.84.68,1.19.29.35.62.7,1.04.96,0,0,.07-.04.07-.04-.05-.38-.17-.71-.3-1.03-.21-.54-.6-.98-.96-1.42-.49-.64-1.2-1.54-1.72-2.15,0,0-.07.04-.07.04h0Z"/><path class="cls-6" d="M157.32,65.72c.34.72.88,1.74,1.26,2.45.22.4.39.84.68,1.19.29.35.62.7,1.04.96,0,0,.07-.04.07-.04-.05-.38-.17-.71-.3-1.03-.21-.54-.6-.98-.96-1.42-.49-.64-1.2-1.54-1.72-2.15,0,0-.07.04-.07.04h0Z"/><path class="cls-6" d="M158.97,64.9c.29.74.77,1.79,1.11,2.52.19.42.33.86.61,1.23.27.37.57.74.98,1.02,0,0,.07-.04.07-.04-.02-.38-.12-.72-.24-1.05-.18-.55-.54-1.01-.87-1.48-.45-.67-1.1-1.61-1.59-2.25,0,0-.07.04-.07.04h0Z"/><path class="cls-6" d="M158.46,65.33c.29.74.77,1.79,1.11,2.52.19.42.33.86.61,1.23.27.37.57.74.98,1.02,0,0,.07-.04.07-.04-.02-.38-.12-.72-.24-1.05-.18-.55-.54-1.01-.87-1.48-.45-.67-1.1-1.61-1.59-2.25,0,0-.07.04-.07.04h0Z"/><path class="cls-6" d="M159.48,65.01c.26.75.69,1.83.99,2.57.17.42.29.88.55,1.26.25.38.54.76.93,1.07,0,0,.07-.04.07-.04,0-.38-.09-.72-.19-1.06-.15-.56-.49-1.04-.8-1.52-.42-.69-1.02-1.67-1.48-2.33,0,0-.07.04-.07.04h0Z"/><path class="cls-6" d="M160.03,65.31c.26.75.69,1.83.99,2.57.17.42.29.88.55,1.26.25.38.54.76.93,1.07,0,0,.07-.04.07-.04,0-.38-.09-.72-.19-1.06-.15-.56-.49-1.04-.8-1.52-.42-.69-1.02-1.67-1.48-2.33,0,0-.07.04-.07.04h0Z"/><path class="cls-6" d="M160.97,65.03c.21.77.57,1.86.83,2.63.15.43.24.89.47,1.29.23.39.49.79.86,1.12,0,0,.07-.03.07-.03.02-.38-.04-.73-.12-1.07-.12-.57-.42-1.07-.7-1.56-.38-.71-.92-1.73-1.33-2.41,0,0-.07.03-.07.03h0Z"/><path class="cls-6" d="M160.41,65.4c.21.77.57,1.86.83,2.63.15.43.24.89.47,1.29.23.39.49.79.86,1.12,0,0,.07-.03.07-.03.02-.38-.04-.73-.12-1.07-.12-.57-.42-1.07-.7-1.56-.38-.71-.92-1.73-1.33-2.41,0,0-.07.03-.07.03h0Z"/><path class="cls-6" d="M160.54,65.01c.21.77.57,1.86.83,2.63.15.43.24.89.47,1.29.23.39.49.79.86,1.12,0,0,.07-.03.07-.03.02-.38-.04-.73-.12-1.07-.12-.57-.42-1.07-.7-1.56-.38-.71-.92-1.73-1.33-2.41,0,0-.07.03-.07.03h0Z"/><path class="cls-6" d="M154.77,66.58c.46.65,1.16,1.57,1.66,2.2.28.36.52.76.87,1.06.35.29.72.59,1.19.77,0,0,.06-.05.06-.05-.11-.36-.28-.67-.47-.96-.3-.5-.76-.86-1.19-1.24-.6-.55-1.44-1.32-2.06-1.83,0,0-.06.05-.06.05h0Z"/><path class="cls-6" d="M154.78,66.17c.46.65,1.16,1.57,1.66,2.2.28.36.52.76.87,1.06.35.29.72.59,1.19.77,0,0,.06-.05.06-.05-.11-.36-.28-.67-.47-.96-.3-.5-.76-.86-1.19-1.24-.6-.55-1.44-1.32-2.06-1.83,0,0-.06.05-.06.05h0Z"/><path class="cls-6" d="M154.03,67.25c.47.64,1.21,1.53,1.72,2.15.29.35.54.75.9,1.04.36.28.74.57,1.21.73,0,0,.06-.05.06-.05-.12-.36-.3-.66-.5-.95-.31-.49-.78-.84-1.22-1.2-.61-.53-1.48-1.28-2.11-1.77,0,0-.06.05-.06.05h0Z"/><path class="cls-6" d="M155.94,65.65c.45.66,1.15,1.58,1.64,2.22.28.36.51.77.86,1.07.35.3.72.59,1.18.78,0,0,.06-.05.06-.05-.11-.37-.28-.67-.46-.97-.29-.5-.75-.87-1.17-1.25-.59-.55-1.43-1.33-2.04-1.85,0,0-.06.05-.06.05h0Z"/><path class="cls-6" d="M156.18,65.61c.45.66,1.15,1.58,1.64,2.22.28.36.51.77.86,1.07.35.3.72.59,1.18.78,0,0,.06-.05.06-.05-.11-.37-.28-.67-.46-.97-.29-.5-.75-.87-1.17-1.25-.59-.55-1.43-1.33-2.04-1.85,0,0-.06.05-.06.05h0Z"/><path class="cls-6" d="M156.77,65.36c.34.72.88,1.74,1.26,2.45.22.4.39.84.68,1.19.29.35.62.7,1.04.96,0,0,.07-.04.07-.04-.05-.38-.17-.71-.3-1.03-.21-.54-.6-.98-.96-1.42-.49-.64-1.2-1.54-1.72-2.15,0,0-.07.04-.07.04h0Z"/><path class="cls-6" d="M157.78,65.99c.34.72.88,1.74,1.26,2.45.22.4.39.84.68,1.19.29.35.62.7,1.04.96,0,0,.07-.04.07-.04-.05-.38-.17-.71-.3-1.03-.21-.54-.6-.98-.96-1.42-.49-.64-1.2-1.54-1.72-2.15,0,0-.07.04-.07.04h0Z"/><path class="cls-6" d="M154.59,66.89c.34.72.88,1.74,1.26,2.45.22.4.39.84.68,1.19.29.35.62.7,1.04.96,0,0,.07-.04.07-.04-.05-.38-.17-.71-.3-1.03-.21-.54-.6-.98-.96-1.42-.49-.64-1.2-1.54-1.72-2.15,0,0-.07.04-.07.04h0Z"/><path class="cls-6" d="M155.06,67.2c.37.71.96,1.7,1.37,2.39.24.39.42.82.73,1.16.31.34.65.67,1.09.91,0,0,.06-.05.06-.05-.06-.38-.2-.7-.35-1.01-.24-.53-.64-.95-1.02-1.37-.52-.62-1.27-1.49-1.82-2.07,0,0-.06.05-.06.05h0Z"/><path class="cls-6" d="M155.98,66.98c.29.74.77,1.79,1.11,2.52.19.42.33.86.61,1.23.27.37.57.74.98,1.02,0,0,.07-.04.07-.04-.02-.38-.12-.72-.24-1.05-.18-.55-.54-1.01-.87-1.48-.45-.67-1.1-1.61-1.59-2.25,0,0-.07.04-.07.04h0Z"/><path class="cls-6" d="M151,67.75c.57.56,1.43,1.32,2.04,1.85.34.3.66.65,1.05.88.4.22.82.44,1.31.53,0,0,.05-.06.05-.06-.18-.34-.4-.6-.64-.86-.39-.43-.9-.71-1.4-.99-.69-.43-1.66-1.03-2.37-1.41,0,0-.05.06-.05.06h0Z"/><path class="cls-6" d="M151.98,67.58c.49.63,1.24,1.5,1.77,2.11.3.35.56.73.93,1.01.36.28.75.55,1.23.7,0,0,.05-.06.05-.06-.13-.36-.32-.65-.52-.94-.33-.48-.8-.82-1.25-1.17-.62-.51-1.51-1.24-2.16-1.72,0,0-.05.06-.05.06h0Z"/><path class="cls-6" d="M151.54,68.82c.54.58,1.37,1.38,1.95,1.94.33.32.63.68,1.01.93.39.24.8.48,1.29.59,0,0,.05-.06.05-.06-.16-.35-.38-.62-.6-.89-.37-.45-.87-.75-1.35-1.06-.67-.46-1.62-1.1-2.3-1.52,0,0-.05.06-.05.06h0Z"/><path class="cls-6" d="M152.65,67.83c.49.63,1.24,1.5,1.77,2.11.3.35.56.73.93,1.01.36.28.75.55,1.23.7,0,0,.05-.06.05-.06-.13-.36-.32-.65-.52-.94-.33-.48-.8-.82-1.25-1.17-.62-.51-1.51-1.24-2.16-1.72,0,0-.05.06-.05.06h0Z"/><path class="cls-6" d="M151.99,68.91c.58.55,1.45,1.31,2.06,1.83.35.3.66.64,1.06.87.4.22.83.43,1.32.52,0,0,.05-.06.05-.06-.18-.34-.41-.6-.65-.85-.39-.43-.91-.7-1.41-.98-.69-.42-1.67-1.01-2.38-1.39,0,0-.05.06-.05.06h0Z"/><path class="cls-6" d="M152.64,67.41c.49.63,1.24,1.5,1.77,2.11.3.35.56.73.93,1.01.36.28.75.55,1.23.7,0,0,.05-.06.05-.06-.13-.36-.32-.65-.52-.94-.33-.48-.8-.82-1.25-1.17-.62-.51-1.51-1.24-2.16-1.72,0,0-.05.06-.05.06h0Z"/><path class="cls-6" d="M153.03,67.4c.49.63,1.24,1.5,1.77,2.11.3.35.56.73.93,1.01.36.28.75.55,1.23.7,0,0,.05-.06.05-.06-.13-.36-.32-.65-.52-.94-.33-.48-.8-.82-1.25-1.17-.62-.51-1.51-1.24-2.16-1.72,0,0-.05.06-.05.06h0Z"/><path class="cls-6" d="M153.46,67.3c.45.66,1.15,1.58,1.64,2.22.28.36.51.77.86,1.07.35.3.72.59,1.18.78,0,0,.06-.05.06-.05-.11-.37-.28-.67-.46-.97-.29-.5-.75-.87-1.17-1.25-.59-.55-1.43-1.33-2.04-1.85,0,0-.06.05-.06.05h0Z"/><path class="cls-6" d="M153.7,67.26c.45.66,1.15,1.58,1.64,2.22.28.36.51.77.86,1.07.35.3.72.59,1.18.78,0,0,.06-.05.06-.05-.11-.37-.28-.67-.46-.97-.29-.5-.75-.87-1.17-1.25-.59-.55-1.43-1.33-2.04-1.85,0,0-.06.05-.06.05h0Z"/><path class="cls-6" d="M154.23,67c.38.7.98,1.69,1.4,2.37.24.39.43.81.75,1.15.31.33.65.66,1.1.9,0,0,.06-.05.06-.05-.07-.37-.21-.7-.36-1.01-.24-.53-.66-.94-1.04-1.36-.53-.61-1.29-1.47-1.84-2.05,0,0-.06.05-.06.05h0Z"/><path class="cls-6" d="M154.88,67.83c.34.72.88,1.74,1.26,2.45.22.4.39.84.68,1.19.29.35.62.7,1.04.96,0,0,.07-.04.07-.04-.05-.38-.17-.71-.3-1.03-.21-.54-.6-.98-.96-1.42-.49-.64-1.2-1.54-1.72-2.15,0,0-.07.04-.07.04h0Z"/><path class="cls-6" d="M158.96,65.66c.34.72.88,1.74,1.26,2.45.22.4.39.84.68,1.19.29.35.62.7,1.04.96,0,0,.07-.04.07-.04-.05-.38-.17-.71-.3-1.03-.21-.54-.6-.98-.96-1.42-.49-.64-1.2-1.54-1.72-2.15,0,0-.07.04-.07.04h0Z"/><path class="cls-6" d="M155.53,65.66c.34.72.88,1.74,1.26,2.45.22.4.39.84.68,1.19.29.35.62.7,1.04.96,0,0,.07-.04.07-.04-.05-.38-.17-.71-.3-1.03-.21-.54-.6-.98-.96-1.42-.49-.64-1.2-1.54-1.72-2.15,0,0-.07.04-.07.04h0Z"/><path class="cls-6" d="M156.11,65.9c.34.72.88,1.74,1.26,2.45.22.4.39.84.68,1.19.29.35.62.7,1.04.96,0,0,.07-.04.07-.04-.05-.38-.17-.71-.3-1.03-.21-.54-.6-.98-.96-1.42-.49-.64-1.2-1.54-1.72-2.15,0,0-.07.04-.07.04h0Z"/><path class="cls-6" d="M155.36,66.34c.34.72.88,1.74,1.26,2.45.22.4.39.84.68,1.19.29.35.62.7,1.04.96,0,0,.07-.04.07-.04-.05-.38-.17-.71-.3-1.03-.21-.54-.6-.98-.96-1.42-.49-.64-1.2-1.54-1.72-2.15,0,0-.07.04-.07.04h0Z"/><path class="cls-6" d="M157.01,65.52c.29.74.77,1.79,1.11,2.52.19.42.33.86.61,1.23.27.37.57.74.98,1.02,0,0,.07-.04.07-.04-.02-.38-.12-.72-.24-1.05-.18-.55-.54-1.01-.87-1.48-.45-.67-1.1-1.61-1.59-2.25,0,0-.07.04-.07.04h0Z"/><path class="cls-6" d="M156.5,65.94c.29.74.77,1.79,1.11,2.52.19.42.33.86.61,1.23.27.37.57.74.98,1.02,0,0,.07-.04.07-.04-.02-.38-.12-.72-.24-1.05-.18-.55-.54-1.01-.87-1.48-.45-.67-1.1-1.61-1.59-2.25,0,0-.07.04-.07.04h0Z"/><path class="cls-6" d="M157.52,65.62c.26.75.69,1.83.99,2.57.17.42.29.88.55,1.26.25.38.54.76.93,1.07,0,0,.07-.04.07-.04,0-.38-.09-.72-.19-1.06-.15-.56-.49-1.04-.8-1.52-.42-.69-1.02-1.67-1.48-2.33,0,0-.07.04-.07.04h0Z"/><path class="cls-6" d="M153.98,66.27c.45.66,1.15,1.58,1.64,2.22.28.36.51.77.86,1.07.35.3.72.59,1.18.78,0,0,.06-.05.06-.05-.11-.37-.28-.67-.46-.97-.29-.5-.75-.87-1.17-1.25-.59-.55-1.43-1.33-2.04-1.85,0,0-.06.05-.06.05h0Z"/><path class="cls-6" d="M154.21,66.22c.45.66,1.15,1.58,1.64,2.22.28.36.51.77.86,1.07.35.3.72.59,1.18.78,0,0,.06-.05.06-.05-.11-.37-.28-.67-.46-.97-.29-.5-.75-.87-1.17-1.25-.59-.55-1.43-1.33-2.04-1.85,0,0-.06.05-.06.05h0Z"/><path class="cls-6" d="M154.81,65.98c.34.72.88,1.74,1.26,2.45.22.4.39.84.68,1.19.29.35.62.7,1.04.96,0,0,.07-.04.07-.04-.05-.38-.17-.71-.3-1.03-.21-.54-.6-.98-.96-1.42-.49-.64-1.2-1.54-1.72-2.15,0,0-.07.04-.07.04h0Z"/><path class="cls-6" d="M155.82,66.6c.34.72.88,1.74,1.26,2.45.22.4.39.84.68,1.19.29.35.62.7,1.04.96,0,0,.07-.04.07-.04-.05-.38-.17-.71-.3-1.03-.21-.54-.6-.98-.96-1.42-.49-.64-1.2-1.54-1.72-2.15,0,0-.07.04-.07.04h0Z"/><path class="cls-6" d="M156.99,66.28c.34.72.88,1.74,1.26,2.45.22.4.39.84.68,1.19.29.35.62.7,1.04.96,0,0,.07-.04.07-.04-.05-.38-.17-.71-.3-1.03-.21-.54-.6-.98-.96-1.42-.49-.64-1.2-1.54-1.72-2.15,0,0-.07.04-.07.04h0Z"/><path class="cls-6" d="M161.56,65.27c.14.79.39,1.91.57,2.7.1.45.15.91.34,1.33.19.41.41.84.75,1.2,0,0,.07-.02.07-.02.05-.38.02-.73-.02-1.07-.06-.58-.32-1.1-.55-1.62-.31-.75-.75-1.8-1.1-2.53,0,0-.07.02-.07.02h0Z"/><path class="cls-6" d="M162.67,65.63c.05.8.18,1.94.27,2.74.05.46.05.92.19,1.36.14.43.31.88.61,1.28,0,0,.08-.02.08-.02.1-.37.11-.72.1-1.07,0-.58-.2-1.13-.37-1.67-.22-.78-.54-1.88-.81-2.63,0,0-.08.02-.08.02h0Z"/><path class="cls-6" d="M161.92,65.41c.09.79.27,1.93.4,2.73.08.45.1.92.26,1.35.17.43.36.86.68,1.24,0,0,.08-.02.08-.02.08-.37.07-.72.05-1.07-.03-.58-.25-1.12-.45-1.65-.26-.76-.64-1.85-.94-2.59,0,0-.08.02-.08.02h0Z"/><path class="cls-6" d="M163.12,65.88c.01.8.08,1.95.14,2.75.03.46,0,.92.13,1.37.12.44.27.89.55,1.3,0,0,.08-.01.08-.01.11-.36.14-.71.15-1.06.03-.58-.14-1.14-.29-1.69-.19-.79-.45-1.9-.68-2.67,0,0-.08.01-.08.01h0Z"/><path class="cls-6" d="M163.55,66.34c.01.8.08,1.95.14,2.75.03.46,0,.92.13,1.37.12.44.27.89.55,1.3,0,0,.08-.01.08-.01.11-.36.14-.71.15-1.06.03-.58-.14-1.14-.29-1.69-.19-.79-.45-1.9-.68-2.67,0,0-.08.01-.08.01h0Z"/><path class="cls-6" d="M164.4,66.74c-.03.68-.03,1.66-.03,2.35,0,.39-.04.79.04,1.17.08.38.18.77.4,1.14,0,0,.07,0,.07,0,.12-.3.16-.6.18-.9.06-.49-.06-.97-.15-1.45-.12-.68-.28-1.64-.44-2.31,0,0-.07,0-.07,0h0Z"/><path class="cls-6" d="M163.8,66.22c0,.8.06,1.95.1,2.75.03.46,0,.92.11,1.37.12.44.26.89.54,1.31,0,0,.08-.01.08-.01.12-.36.15-.71.16-1.06.04-.58-.13-1.14-.27-1.69-.18-.79-.43-1.91-.65-2.68,0,0-.08.01-.08.01h0Z"/><path class="cls-6" d="M164.13,66.22c-.04.8-.04,1.95-.03,2.76,0,.46-.05.92.04,1.37.1.45.21.91.47,1.33,0,0,.08,0,.08,0,.14-.36.18-.7.22-1.05.07-.58-.07-1.14-.18-1.7-.14-.8-.33-1.93-.51-2.71,0,0-.08,0-.08,0h0Z"/><path class="cls-6" d="M162.32,65.87c.14.79.39,1.91.57,2.7.1.45.15.91.34,1.33.19.41.41.84.75,1.2,0,0,.07-.02.07-.02.05-.38.02-.73-.02-1.07-.06-.58-.32-1.1-.55-1.62-.31-.75-.75-1.8-1.1-2.53,0,0-.07.02-.07.02h0Z"/><path class="cls-6" d="M164.56,66.38c.02.68.11,1.66.17,2.34.04.39.02.79.13,1.16.11.37.25.76.5,1.1,0,0,.07-.01.07-.01.09-.31.11-.61.11-.91.02-.49-.14-.97-.28-1.44-.17-.67-.42-1.61-.63-2.26,0,0-.07.01-.07.01h0Z"/><path class="cls-6" d="M164.89,66.77c-.03.52-.04,1.28-.04,1.8,0,.3-.04.6.02.9.06.29.13.6.3.88,0,0,.05,0,.05,0,.09-.23.13-.46.15-.69.05-.38-.04-.75-.11-1.12-.08-.52-.21-1.26-.32-1.78,0,0-.05,0-.05,0h0Z"/><path class="cls-6" d="M165.89,67.71c-.05.46-.08,1.12-.1,1.58-.01.26-.06.53-.02.79.04.26.1.53.23.78,0,0,.05,0,.05,0,.09-.2.13-.4.15-.6.06-.33,0-.66-.05-.98-.06-.46-.14-1.12-.22-1.57,0,0-.05,0-.05,0h0Z"/><path class="cls-6" d="M165.55,67.22c-.08.46-.16,1.14-.22,1.61-.03.27-.1.54-.08.81.02.27.06.55.18.81,0,0,.05,0,.05,0,.11-.2.16-.4.2-.6.08-.33.04-.67.02-1.01-.02-.48-.06-1.15-.1-1.62,0,0-.05,0-.05,0h0Z"/><path class="cls-6" d="M165.15,66.99c-.06.47-.11,1.14-.14,1.62-.02.27-.07.54-.03.81.04.27.09.54.22.8,0,0,.05,0,.05,0,.1-.2.14-.41.17-.61.06-.34,0-.68-.03-1.01-.05-.47-.11-1.15-.18-1.61,0,0-.05,0-.05,0h0Z"/><path class="cls-6" d="M165.77,67.42c-.1.46-.22,1.13-.3,1.6-.04.27-.12.53-.11.8.01.27.03.55.14.82,0,0,.05,0,.05,0,.11-.19.18-.39.23-.59.1-.33.07-.67.06-1.01,0-.48,0-1.15-.03-1.62,0,0-.05,0-.05,0h0Z"/><path class="cls-6" d="M166.12,67.71c-.11.46-.23,1.13-.32,1.59-.05.27-.13.53-.12.8,0,.27.03.55.13.82,0,0,.05,0,.05,0,.12-.19.18-.39.24-.59.1-.33.08-.67.08-1.01,0-.48.01-1.15,0-1.62,0,0-.05,0-.05,0h0Z"/><path class="cls-6" d="M166.3,67.75c-.13.45-.29,1.11-.39,1.57-.06.26-.16.52-.16.79,0,.27,0,.55.09.83,0,0,.05,0,.05,0,.13-.19.2-.38.27-.57.12-.32.11-.67.13-1,.03-.48.07-1.15.07-1.62,0,0-.05,0-.05,0h0Z"/><path class="cls-6" d="M165.31,67.3c-.03.47-.03,1.15-.04,1.62,0,.27-.04.54.02.81.05.26.12.54.27.79,0,0,.05,0,.05,0,.08-.21.11-.41.13-.62.04-.34-.03-.67-.1-1.01-.08-.47-.18-1.14-.28-1.6,0,0-.05,0-.05,0h0Z"/><path class="cls-6" d="M166.58,68.08c-.28.41-.62,1.03-.86,1.46-.13.25-.33.47-.37.75-.04.27-.07.56.05.87,0,0,.08.02.08.02.24-.14.39-.31.52-.49.24-.28.28-.64.34-.97.11-.47.26-1.14.33-1.62,0,0-.08-.02-.08-.02h0Z"/><path class="cls-6" d="M166.76,68.32c-.21.28-.47.69-.65.98-.1.16-.24.32-.29.5-.04.18-.07.37,0,.57,0,0,.05.01.05.01.17-.1.28-.21.37-.33.17-.19.22-.42.27-.65.1-.31.23-.76.3-1.07,0,0-.05-.01-.05-.01h0Z"/><path class="cls-6" d="M167.27,69.02c-.15.18-.34.45-.48.64-.08.11-.18.21-.21.33-.04.12-.06.24-.03.38,0,0,.03,0,.03,0,.12-.06.19-.14.27-.21.12-.12.16-.28.21-.42.08-.21.19-.5.24-.71,0,0-.03,0-.03,0h0Z"/><path class="cls-6" d="M167.24,68.84c-.23.23-.54.58-.75.82-.12.14-.27.26-.34.42-.07.15-.13.32-.1.5,0,0,.04.02.04.02.17-.08.29-.17.4-.27.19-.16.27-.36.36-.55.14-.27.33-.65.45-.92,0,0-.04-.02-.04-.02h0Z"/><path class="cls-6" d="M166.93,68.59c-.21.24-.49.6-.68.85-.11.14-.25.28-.31.43-.05.16-.1.32-.06.51,0,0,.04.01.04.01.16-.08.27-.18.37-.28.17-.16.24-.37.31-.57.12-.27.28-.67.37-.94,0,0-.04-.01-.04-.01h0Z"/><path class="cls-6" d="M167.42,69.26c-.28.19-.66.47-.92.67-.15.11-.33.21-.43.35-.1.14-.19.29-.21.47,0,0,.04.02.04.02.18-.05.32-.12.45-.2.22-.12.34-.3.47-.48.19-.24.47-.58.64-.82,0,0-.04-.02-.04-.02h0Z"/><path class="cls-6" d="M167.68,69.33c-.29.17-.69.44-.96.62-.16.11-.34.19-.45.33-.11.13-.21.28-.24.46,0,0,.04.02.04.02.19-.04.33-.1.46-.17.23-.11.36-.29.5-.45.21-.23.5-.55.69-.79,0,0-.04-.02-.04-.02h0Z"/><path class="cls-6" d="M167.69,69.65c-.29.11-.69.28-.97.4-.16.07-.34.12-.46.22-.12.1-.24.21-.3.36,0,0,.03.03.03.03.17,0,.31-.04.44-.09.22-.06.37-.2.53-.32.23-.17.55-.4.76-.58,0,0-.03-.03-.03-.03h0Z"/><path class="cls-6" d="M166.97,68.84c-.19.25-.42.62-.58.88-.09.15-.22.29-.26.45-.04.16-.06.33,0,.52,0,0,.05.01.05.01.15-.09.25-.19.34-.3.16-.17.19-.38.25-.58.09-.28.21-.68.27-.97,0,0-.05-.01-.05-.01h0Z"/><path class="cls-16" d="M167.15,70.1s-8.52-7.9-14.19.15c0,0,3.62,6.85,14.19-.15Z"/><path class="cls-35" d="M164.29,68.1s-.31,3.94-1.64,4.37"/><path class="cls-17" d="M162.17,67.15s.3,1.69-.3,2.99c-.83,1.78-3.49,2.95-5.53.4-.51-.64-.73-1.29-1.3-2.49,0,0,2.7-2.65,7.13-.9Z"/><circle class="cls-36" cx="159.13" cy="68.99" r="1.14"/><circle class="cls-4" cx="157.84" cy="68.43" r=".47"/><ellipse class="cls-1" cx="157.84" cy="68.42" rx=".46" ry=".44" transform="translate(-2.39 5.81) rotate(-2.09)"/><ellipse class="cls-3" cx="157.84" cy="68.41" rx=".45" ry=".42" transform="translate(-2.39 5.81) rotate(-2.09)"/><ellipse class="cls-12" cx="157.84" cy="68.4" rx=".44" ry=".4" transform="translate(-2.39 5.81) rotate(-2.09)"/><ellipse class="cls-14" cx="157.83" cy="68.39" rx=".43" ry=".37" transform="translate(-2.39 5.81) rotate(-2.09)"/><ellipse class="cls-11" cx="157.83" cy="68.38" rx=".42" ry=".35" transform="translate(-2.39 5.81) rotate(-2.09)"/><ellipse class="cls-13" cx="157.83" cy="68.37" rx=".42" ry=".33" transform="translate(-2.39 5.81) rotate(-2.09)"/><ellipse class="cls-5" cx="157.83" cy="68.36" rx=".41" ry=".3" transform="translate(-2.39 5.81) rotate(-2.09)"/><ellipse class="cls-7" cx="157.83" cy="68.35" rx=".4" ry=".28" transform="translate(-2.39 5.81) rotate(-2.09)"/><ellipse class="cls-2" cx="157.83" cy="68.34" rx=".39" ry=".26" transform="translate(-2.39 5.81) rotate(-2.09)"/><circle class="cls-19" cx="159.13" cy="68.99" r=".5"/><path class="cls-6" d="M194.58,65.67c-.34.72-.88,1.74-1.26,2.45-.22.4-.39.84-.68,1.19-.29.35-.62.7-1.04.96,0,0-.07-.04-.07-.04.05-.38.17-.71.3-1.03.21-.54.6-.98.96-1.42.49-.64,1.2-1.54,1.72-2.15,0,0,.07.04.07.04h0Z"/><path class="cls-6" d="M194,65.91c-.34.72-.88,1.74-1.26,2.45-.22.4-.39.84-.68,1.19-.29.35-.62.7-1.04.96,0,0-.07-.04-.07-.04.05-.38.17-.71.3-1.03.21-.54.6-.98.96-1.42.49-.64,1.2-1.54,1.72-2.15,0,0,.07.04.07.04h0Z"/><path class="cls-6" d="M194.75,66.35c-.34.72-.88,1.74-1.26,2.45-.22.4-.39.84-.68,1.19-.29.35-.62.7-1.04.96,0,0-.07-.04-.07-.04.05-.38.17-.71.3-1.03.21-.54.6-.98.96-1.42.49-.64,1.2-1.54,1.72-2.15,0,0,.07.04.07.04h0Z"/><path class="cls-6" d="M193.1,65.53c-.29.74-.77,1.79-1.11,2.52-.19.42-.33.86-.61,1.23-.27.37-.57.74-.98,1.02,0,0-.07-.04-.07-.04.02-.38.12-.72.24-1.05.18-.55.54-1.01.87-1.48.45-.67,1.1-1.61,1.59-2.25,0,0,.07.04.07.04h0Z"/><path class="cls-6" d="M193.61,65.96c-.29.74-.77,1.79-1.11,2.52-.19.42-.33.86-.61,1.23-.27.37-.57.74-.98,1.02,0,0-.07-.04-.07-.04.02-.38.12-.72.24-1.05.18-.55.54-1.01.87-1.48.45-.67,1.1-1.61,1.59-2.25,0,0,.07.04.07.04h0Z"/><path class="cls-6" d="M192.59,65.64c-.26.75-.69,1.83-.99,2.57-.17.42-.29.88-.55,1.26-.25.38-.54.76-.93,1.07,0,0-.07-.04-.07-.04,0-.38.09-.72.19-1.06.15-.56.49-1.04.8-1.52.42-.69,1.02-1.67,1.48-2.33,0,0,.07.04.07.04h0Z"/><path class="cls-6" d="M192.04,65.93c-.26.75-.69,1.83-.99,2.57-.17.42-.29.88-.55,1.26-.25.38-.54.76-.93,1.07,0,0-.07-.04-.07-.04,0-.38.09-.72.19-1.06.15-.56.49-1.04.8-1.52.42-.69,1.02-1.67,1.48-2.33,0,0,.07.04.07.04h0Z"/><path class="cls-6" d="M191.1,65.66c-.21.77-.57,1.86-.83,2.63-.15.43-.24.89-.47,1.29-.23.39-.49.79-.86,1.12,0,0-.07-.03-.07-.03-.02-.38.04-.73.12-1.07.12-.57.42-1.07.7-1.56.38-.71.92-1.73,1.33-2.41,0,0,.07.03.07.03h0Z"/><path class="cls-6" d="M191.66,66.03c-.21.77-.57,1.86-.83,2.63-.15.43-.24.89-.47,1.29-.23.39-.49.79-.86,1.12,0,0-.07-.03-.07-.03-.02-.38.04-.73.12-1.07.12-.57.42-1.07.7-1.56.38-.71.92-1.73,1.33-2.41,0,0,.07.03.07.03h0Z"/><path class="cls-6" d="M191.53,65.64c-.21.77-.57,1.86-.83,2.63-.15.43-.24.89-.47,1.29-.23.39-.49.79-.86,1.12,0,0-.07-.03-.07-.03-.02-.38.04-.73.12-1.07.12-.57.42-1.07.7-1.56.38-.71.92-1.73,1.33-2.41,0,0,.07.03.07.03h0Z"/><path class="cls-6" d="M197.3,67.21c-.46.65-1.16,1.57-1.66,2.2-.28.36-.52.76-.87,1.06-.35.29-.72.59-1.19.77,0,0-.06-.05-.06-.05.11-.36.28-.67.47-.96.3-.5.76-.86,1.19-1.24.6-.55,1.44-1.32,2.06-1.83,0,0,.06.05.06.05h0Z"/><path class="cls-6" d="M197.29,66.8c-.46.65-1.16,1.57-1.66,2.2-.28.36-.52.76-.87,1.06-.35.29-.72.59-1.19.77,0,0-.06-.05-.06-.05.11-.36.28-.67.47-.96.3-.5.76-.86,1.19-1.24.6-.55,1.44-1.32,2.06-1.83,0,0,.06.05.06.05h0Z"/><path class="cls-6" d="M198.04,67.88c-.47.64-1.21,1.53-1.72,2.15-.29.35-.54.75-.9,1.04-.36.28-.74.57-1.21.73,0,0-.06-.05-.06-.05.12-.36.3-.66.5-.95.31-.49.78-.84,1.22-1.2.61-.53,1.48-1.28,2.11-1.77,0,0,.06.05.06.05h0Z"/><path class="cls-6" d="M196.13,66.28c-.45.66-1.15,1.58-1.64,2.22-.28.36-.51.77-.86,1.07-.35.3-.72.59-1.18.78,0,0-.06-.05-.06-.05.11-.37.28-.67.46-.97.29-.5.75-.87,1.17-1.25.59-.55,1.43-1.33,2.04-1.85,0,0,.06.05.06.05h0Z"/><path class="cls-6" d="M195.9,66.24c-.45.66-1.15,1.58-1.64,2.22-.28.36-.51.77-.86,1.07-.35.3-.72.59-1.18.78,0,0-.06-.05-.06-.05.11-.37.28-.67.46-.97.29-.5.75-.87,1.17-1.25.59-.55,1.43-1.33,2.04-1.85,0,0,.06.05.06.05h0Z"/><path class="cls-6" d="M195.3,65.99c-.34.72-.88,1.74-1.26,2.45-.22.4-.39.84-.68,1.19-.29.35-.62.7-1.04.96,0,0-.07-.04-.07-.04.05-.38.17-.71.3-1.03.21-.54.6-.98.96-1.42.49-.64,1.2-1.54,1.72-2.15,0,0,.07.04.07.04h0Z"/><path class="cls-6" d="M194.29,66.62c-.34.72-.88,1.74-1.26,2.45-.22.4-.39.84-.68,1.19-.29.35-.62.7-1.04.96,0,0-.07-.04-.07-.04.05-.38.17-.71.3-1.03.21-.54.6-.98.96-1.42.49-.64,1.2-1.54,1.72-2.15,0,0,.07.04.07.04h0Z"/><path class="cls-6" d="M197.48,67.52c-.34.72-.88,1.74-1.26,2.45-.22.4-.39.84-.68,1.19-.29.35-.62.7-1.04.96,0,0-.07-.04-.07-.04.05-.38.17-.71.3-1.03.21-.54.6-.98.96-1.42.49-.64,1.2-1.54,1.72-2.15,0,0,.07.04.07.04h0Z"/><path class="cls-6" d="M197.01,67.83c-.37.71-.96,1.7-1.37,2.39-.24.39-.42.82-.73,1.16-.31.34-.65.67-1.09.91,0,0-.06-.05-.06-.05.06-.38.2-.7.35-1.01.24-.53.64-.95,1.02-1.37.52-.62,1.27-1.49,1.82-2.07,0,0,.06.05.06.05h0Z"/><path class="cls-6" d="M196.09,67.61c-.29.74-.77,1.79-1.11,2.52-.19.42-.33.86-.61,1.23-.27.37-.57.74-.98,1.02,0,0-.07-.04-.07-.04.02-.38.12-.72.24-1.05.18-.55.54-1.01.87-1.48.45-.67,1.1-1.61,1.59-2.25,0,0,.07.04.07.04h0Z"/><path class="cls-6" d="M201.07,68.38c-.57.56-1.43,1.32-2.04,1.85-.34.3-.66.65-1.05.88-.4.22-.82.44-1.31.53,0,0-.05-.06-.05-.06.18-.34.4-.6.64-.86.39-.43.9-.71,1.4-.99.69-.43,1.66-1.03,2.37-1.41,0,0,.05.06.05.06h0Z"/><path class="cls-6" d="M200.09,68.21c-.49.63-1.24,1.5-1.77,2.11-.3.35-.56.73-.93,1.01-.36.28-.75.55-1.23.7,0,0-.05-.06-.05-.06.13-.36.32-.65.52-.94.33-.48.8-.82,1.25-1.17.62-.51,1.51-1.24,2.16-1.72,0,0,.05.06.05.06h0Z"/><path class="cls-6" d="M200.53,69.45c-.54.58-1.37,1.38-1.95,1.94-.33.32-.63.68-1.01.93-.39.24-.8.48-1.29.59,0,0-.05-.06-.05-.06.16-.35.38-.62.6-.89.37-.45.87-.75,1.35-1.06.67-.46,1.62-1.1,2.3-1.52,0,0,.05.06.05.06h0Z"/><path class="cls-6" d="M199.42,68.45c-.49.63-1.24,1.5-1.77,2.11-.3.35-.56.73-.93,1.01-.36.28-.75.55-1.23.7,0,0-.05-.06-.05-.06.13-.36.32-.65.52-.94.33-.48.8-.82,1.25-1.17.62-.51,1.51-1.24,2.16-1.72,0,0,.05.06.05.06h0Z"/><path class="cls-6" d="M200.09,69.54c-.58.55-1.45,1.31-2.06,1.83-.35.3-.66.64-1.06.87-.4.22-.83.43-1.32.52,0,0-.05-.06-.05-.06.18-.34.41-.6.65-.85.39-.43.91-.7,1.41-.98.69-.42,1.67-1.01,2.38-1.39,0,0,.05.06.05.06h0Z"/><path class="cls-6" d="M199.43,68.04c-.49.63-1.24,1.5-1.77,2.11-.3.35-.56.73-.93,1.01-.36.28-.75.55-1.23.7,0,0-.05-.06-.05-.06.13-.36.32-.65.52-.94.33-.48.8-.82,1.25-1.17.62-.51,1.51-1.24,2.16-1.72,0,0,.05.06.05.06h0Z"/><path class="cls-6" d="M199.04,68.03c-.49.63-1.24,1.5-1.77,2.11-.3.35-.56.73-.93,1.01-.36.28-.75.55-1.23.7,0,0-.05-.06-.05-.06.13-.36.32-.65.52-.94.33-.48.8-.82,1.25-1.17.62-.51,1.51-1.24,2.16-1.72,0,0,.05.06.05.06h0Z"/><path class="cls-6" d="M198.61,67.93c-.45.66-1.15,1.58-1.64,2.22-.28.36-.51.77-.86,1.07-.35.3-.72.59-1.18.78,0,0-.06-.05-.06-.05.11-.37.28-.67.46-.97.29-.5.75-.87,1.17-1.25.59-.55,1.43-1.33,2.04-1.85,0,0,.06.05.06.05h0Z"/><path class="cls-6" d="M198.37,67.89c-.45.66-1.15,1.58-1.64,2.22-.28.36-.51.77-.86,1.07-.35.3-.72.59-1.18.78,0,0-.06-.05-.06-.05.11-.37.28-.67.46-.97.29-.5.75-.87,1.17-1.25.59-.55,1.43-1.33,2.04-1.85,0,0,.06.05.06.05h0Z"/><path class="cls-6" d="M197.84,67.63c-.38.7-.98,1.69-1.4,2.37-.24.39-.43.81-.75,1.15-.31.33-.65.66-1.1.9,0,0-.06-.05-.06-.05.07-.37.21-.7.36-1.01.24-.53.66-.94,1.04-1.36.53-.61,1.29-1.47,1.84-2.05,0,0,.06.05.06.05h0Z"/><path class="cls-6" d="M197.19,68.46c-.34.72-.88,1.74-1.26,2.45-.22.4-.39.84-.68,1.19-.29.35-.62.7-1.04.96,0,0-.07-.04-.07-.04.05-.38.17-.71.3-1.03.21-.54.6-.98.96-1.42.49-.64,1.2-1.54,1.72-2.15,0,0,.07.04.07.04h0Z"/><path class="cls-6" d="M193.11,66.29c-.34.72-.88,1.74-1.26,2.45-.22.4-.39.84-.68,1.19-.29.35-.62.7-1.04.96,0,0-.07-.04-.07-.04.05-.38.17-.71.3-1.03.21-.54.6-.98.96-1.42.49-.64,1.2-1.54,1.72-2.15,0,0,.07.04.07.04h0Z"/><path class="cls-6" d="M196.54,66.29c-.34.72-.88,1.74-1.26,2.45-.22.4-.39.84-.68,1.19-.29.35-.62.7-1.04.96,0,0-.07-.04-.07-.04.05-.38.17-.71.3-1.03.21-.54.6-.98.96-1.42.49-.64,1.2-1.54,1.72-2.15,0,0,.07.04.07.04h0Z"/><path class="cls-6" d="M195.96,66.53c-.34.72-.88,1.74-1.26,2.45-.22.4-.39.84-.68,1.19-.29.35-.62.7-1.04.96,0,0-.07-.04-.07-.04.05-.38.17-.71.3-1.03.21-.54.6-.98.96-1.42.49-.64,1.2-1.54,1.72-2.15,0,0,.07.04.07.04h0Z"/><path class="cls-6" d="M196.71,66.97c-.34.72-.88,1.74-1.26,2.45-.22.4-.39.84-.68,1.19-.29.35-.62.7-1.04.96,0,0-.07-.04-.07-.04.05-.38.17-.71.3-1.03.21-.54.6-.98.96-1.42.49-.64,1.2-1.54,1.72-2.15,0,0,.07.04.07.04h0Z"/><path class="cls-6" d="M195.06,66.15c-.29.74-.77,1.79-1.11,2.52-.19.42-.33.86-.61,1.23-.27.37-.57.74-.98,1.02,0,0-.07-.04-.07-.04.02-.38.12-.72.24-1.05.18-.55.54-1.01.87-1.48.45-.67,1.1-1.61,1.59-2.25,0,0,.07.04.07.04h0Z"/><path class="cls-6" d="M195.57,66.57c-.29.74-.77,1.79-1.11,2.52-.19.42-.33.86-.61,1.23-.27.37-.57.74-.98,1.02,0,0-.07-.04-.07-.04.02-.38.12-.72.24-1.05.18-.55.54-1.01.87-1.48.45-.67,1.1-1.61,1.59-2.25,0,0,.07.04.07.04h0Z"/><path class="cls-6" d="M194.55,66.25c-.26.75-.69,1.83-.99,2.57-.17.42-.29.88-.55,1.26-.25.38-.54.76-.93,1.07,0,0-.07-.04-.07-.04,0-.38.09-.72.19-1.06.15-.56.49-1.04.8-1.52.42-.69,1.02-1.67,1.48-2.33,0,0,.07.04.07.04h0Z"/><path class="cls-6" d="M198.1,66.9c-.45.66-1.15,1.58-1.64,2.22-.28.36-.51.77-.86,1.07-.35.3-.72.59-1.18.78,0,0-.06-.05-.06-.05.11-.37.28-.67.46-.97.29-.5.75-.87,1.17-1.25.59-.55,1.43-1.33,2.04-1.85,0,0,.06.05.06.05h0Z"/><path class="cls-6" d="M197.86,66.85c-.45.66-1.15,1.58-1.64,2.22-.28.36-.51.77-.86,1.07-.35.3-.72.59-1.18.78,0,0-.06-.05-.06-.05.11-.37.28-.67.46-.97.29-.5.75-.87,1.17-1.25.59-.55,1.43-1.33,2.04-1.85,0,0,.06.05.06.05h0Z"/><path class="cls-6" d="M197.26,66.61c-.34.72-.88,1.74-1.26,2.45-.22.4-.39.84-.68,1.19-.29.35-.62.7-1.04.96,0,0-.07-.04-.07-.04.05-.38.17-.71.3-1.03.21-.54.6-.98.96-1.42.49-.64,1.2-1.54,1.72-2.15,0,0,.07.04.07.04h0Z"/><path class="cls-6" d="M196.25,67.23c-.34.72-.88,1.74-1.26,2.45-.22.4-.39.84-.68,1.19-.29.35-.62.7-1.04.96,0,0-.07-.04-.07-.04.05-.38.17-.71.3-1.03.21-.54.6-.98.96-1.42.49-.64,1.2-1.54,1.72-2.15,0,0,.07.04.07.04h0Z"/><path class="cls-6" d="M195.08,66.91c-.34.72-.88,1.74-1.26,2.45-.22.4-.39.84-.68,1.19-.29.35-.62.7-1.04.96,0,0-.07-.04-.07-.04.05-.38.17-.71.3-1.03.21-.54.6-.98.96-1.42.49-.64,1.2-1.54,1.72-2.15,0,0,.07.04.07.04h0Z"/><path class="cls-6" d="M190.51,65.9c-.14.79-.39,1.91-.57,2.7-.1.45-.15.91-.34,1.33-.19.41-.41.84-.75,1.2,0,0-.07-.02-.07-.02-.05-.38-.02-.73.02-1.07.06-.58.32-1.1.55-1.62.31-.75.75-1.8,1.1-2.53,0,0,.07.02.07.02h0Z"/><path class="cls-6" d="M189.4,66.26c-.05.8-.18,1.94-.27,2.74-.05.46-.05.92-.19,1.36-.14.43-.31.88-.61,1.28,0,0-.08-.02-.08-.02-.1-.37-.11-.72-.1-1.07,0-.58.2-1.13.37-1.67.22-.78.54-1.88.81-2.63,0,0,.08.02.08.02h0Z"/><path class="cls-6" d="M190.15,66.04c-.09.79-.27,1.93-.4,2.73-.08.45-.1.92-.26,1.35-.17.43-.36.86-.68,1.24,0,0-.08-.02-.08-.02-.08-.37-.07-.72-.05-1.07.03-.58.25-1.12.45-1.65.26-.76.64-1.85.94-2.59,0,0,.08.02.08.02h0Z"/><path class="cls-6" d="M188.95,66.51c-.01.8-.08,1.95-.14,2.75-.03.46,0,.92-.13,1.37-.12.44-.27.89-.55,1.3,0,0-.08-.01-.08-.01-.11-.36-.14-.71-.15-1.06-.03-.58.14-1.14.29-1.69.19-.79.45-1.9.68-2.67,0,0,.08.01.08.01h0Z"/><path class="cls-6" d="M188.52,66.97c-.01.8-.08,1.95-.14,2.75-.03.46,0,.92-.13,1.37-.12.44-.27.89-.55,1.3,0,0-.08-.01-.08-.01-.11-.36-.14-.71-.15-1.06-.03-.58.14-1.14.29-1.69.19-.79.45-1.9.68-2.67,0,0,.08.01.08.01h0Z"/><path class="cls-6" d="M187.68,67.37c.03.68.03,1.66.03,2.35,0,.39.04.79-.04,1.17-.08.38-.18.77-.4,1.14,0,0-.07,0-.07,0-.12-.3-.16-.6-.18-.9-.06-.49.06-.97.15-1.45.12-.68.28-1.64.44-2.31,0,0,.07,0,.07,0h0Z"/><path class="cls-6" d="M188.27,66.85c0,.8-.06,1.95-.1,2.75-.03.46,0,.92-.11,1.37-.12.44-.26.89-.54,1.31,0,0-.08-.01-.08-.01-.12-.36-.15-.71-.16-1.06-.04-.58.13-1.14.27-1.69.18-.79.43-1.91.65-2.68,0,0,.08.01.08.01h0Z"/><path class="cls-6" d="M187.94,66.85c.04.8.04,1.95.03,2.76,0,.46.05.92-.04,1.37-.1.45-.21.91-.47,1.33,0,0-.08,0-.08,0-.14-.36-.18-.7-.22-1.05-.07-.58.07-1.14.18-1.7.14-.8.33-1.93.51-2.71,0,0,.08,0,.08,0h0Z"/><path class="cls-6" d="M189.75,66.5c-.14.79-.39,1.91-.57,2.7-.1.45-.15.91-.34,1.33-.19.41-.41.84-.75,1.2,0,0-.07-.02-.07-.02-.05-.38-.02-.73.02-1.07.06-.58.32-1.1.55-1.62.31-.75.75-1.8,1.1-2.53,0,0,.07.02.07.02h0Z"/><path class="cls-6" d="M187.51,67.01c-.02.68-.11,1.66-.17,2.34-.04.39-.02.79-.13,1.16-.11.37-.25.76-.5,1.1,0,0-.07-.01-.07-.01-.09-.31-.11-.61-.11-.91-.02-.49.14-.97.28-1.44.17-.67.42-1.61.63-2.26,0,0,.07.01.07.01h0Z"/><path class="cls-6" d="M187.18,67.4c.03.52.04,1.28.04,1.8,0,.3.04.6-.02.9-.06.29-.13.6-.3.88,0,0-.05,0-.05,0-.09-.23-.13-.46-.15-.69-.05-.38.04-.75.11-1.12.08-.52.21-1.26.32-1.78,0,0,.05,0,.05,0h0Z"/><path class="cls-6" d="M186.18,68.34c.05.46.08,1.12.1,1.58.01.26.06.53.02.79-.04.26-.1.53-.23.78,0,0-.05,0-.05,0-.09-.2-.13-.4-.15-.6-.06-.33,0-.66.05-.98.06-.46.14-1.12.22-1.57,0,0,.05,0,.05,0h0Z"/><path class="cls-6" d="M186.52,67.85c.08.46.16,1.14.22,1.61.03.27.1.54.08.81-.02.27-.06.55-.18.81,0,0-.05,0-.05,0-.11-.2-.16-.4-.2-.6-.08-.33-.04-.67-.02-1.01.02-.48.06-1.15.1-1.62,0,0,.05,0,.05,0h0Z"/><path class="cls-6" d="M186.92,67.62c.06.47.11,1.14.14,1.62.02.27.07.54.03.81-.04.27-.09.54-.22.8,0,0-.05,0-.05,0-.1-.2-.14-.41-.17-.61-.06-.34,0-.68.03-1.01.05-.47.11-1.15.18-1.61,0,0,.05,0,.05,0h0Z"/><path class="cls-6" d="M186.3,68.05c.1.46.22,1.13.3,1.6.04.27.12.53.11.8-.01.27-.03.55-.14.82,0,0-.05,0-.05,0-.11-.19-.18-.39-.23-.59-.1-.33-.07-.67-.06-1.01,0-.48,0-1.15.03-1.62,0,0,.05,0,.05,0h0Z"/><path class="cls-6" d="M185.95,68.34c.11.46.23,1.13.32,1.59.05.27.13.53.12.8,0,.27-.03.55-.13.82,0,0-.05,0-.05,0-.12-.19-.18-.39-.24-.59-.1-.33-.08-.67-.08-1.01,0-.48-.01-1.15,0-1.62,0,0,.05,0,.05,0h0Z"/><path class="cls-6" d="M185.77,68.38c.13.45.29,1.11.39,1.57.06.26.16.52.16.79,0,.27,0,.55-.09.83,0,0-.05,0-.05,0-.13-.19-.2-.38-.27-.57-.12-.32-.11-.67-.13-1-.03-.48-.07-1.15-.07-1.62,0,0,.05,0,.05,0h0Z"/><path class="cls-6" d="M186.76,67.93c.03.47.03,1.15.04,1.62,0,.27.04.54-.02.81-.05.26-.12.54-.27.79,0,0-.05,0-.05,0-.08-.21-.11-.41-.13-.62-.04-.34.03-.67.1-1.01.08-.47.18-1.14.28-1.6,0,0,.05,0,.05,0h0Z"/><path class="cls-6" d="M185.49,68.71c.28.41.62,1.03.86,1.46.13.25.33.47.37.75.04.27.07.56-.05.87,0,0-.08.02-.08.02-.24-.14-.39-.31-.52-.49-.24-.28-.28-.64-.34-.97-.11-.47-.26-1.14-.33-1.62,0,0,.08-.02.08-.02h0Z"/><path class="cls-6" d="M185.31,68.95c.21.28.47.69.65.98.1.16.24.32.29.5.04.18.07.37,0,.57,0,0-.05.01-.05.01-.17-.1-.28-.21-.37-.33-.17-.19-.22-.42-.27-.65-.1-.31-.23-.76-.3-1.07,0,0,.05-.01.05-.01h0Z"/><path class="cls-6" d="M184.8,69.65c.15.18.34.45.48.64.08.11.18.21.21.33.04.12.06.24.03.38,0,0-.03,0-.03,0-.12-.06-.19-.14-.27-.21-.12-.12-.16-.28-.21-.42-.08-.21-.19-.5-.24-.71,0,0,.03,0,.03,0h0Z"/><path class="cls-6" d="M184.83,69.46c.23.23.54.58.75.82.12.14.27.26.34.42.07.15.13.32.1.5,0,0-.04.02-.04.02-.17-.08-.29-.17-.4-.27-.19-.16-.27-.36-.36-.55-.14-.27-.33-.65-.45-.92,0,0,.04-.02.04-.02h0Z"/><path class="cls-6" d="M185.14,69.22c.21.24.49.6.68.85.11.14.25.28.31.43.05.16.1.32.06.51,0,0-.04.01-.04.01-.16-.08-.27-.18-.37-.28-.17-.16-.24-.37-.31-.57-.12-.27-.28-.67-.37-.94,0,0,.04-.01.04-.01h0Z"/><path class="cls-6" d="M184.65,69.89c.28.19.66.47.92.67.15.11.33.21.43.35.1.14.19.29.21.47,0,0-.04.02-.04.02-.18-.05-.32-.12-.45-.2-.22-.12-.34-.3-.47-.48-.19-.24-.47-.58-.64-.82,0,0,.04-.02.04-.02h0Z"/><path class="cls-6" d="M184.39,69.96c.29.17.69.44.96.62.16.11.34.19.45.33.11.13.21.28.24.46,0,0-.04.02-.04.02-.19-.04-.33-.1-.46-.17-.23-.11-.36-.29-.5-.45-.21-.23-.5-.55-.69-.79,0,0,.04-.02.04-.02h0Z"/><path class="cls-6" d="M184.38,70.28c.29.11.69.28.97.4.16.07.34.12.46.22.12.1.24.21.3.36,0,0-.03.03-.03.03-.17,0-.31-.04-.44-.09-.22-.06-.37-.2-.53-.32-.23-.17-.55-.4-.76-.58,0,0,.03-.03.03-.03h0Z"/><path class="cls-6" d="M185.1,69.47c.19.25.42.62.58.88.09.15.22.29.26.45.04.16.06.33,0,.52,0,0-.05.01-.05.01-.15-.09-.25-.19-.34-.3-.16-.17-.19-.38-.25-.58-.09-.28-.21-.68-.27-.97,0,0,.05-.01.05-.01h0Z"/><path class="cls-16" d="M184.92,70.73s8.52-7.9,14.19.15c0,0-3.62,6.85-14.19-.15Z"/><path class="cls-35" d="M187.78,68.73s.31,3.94,1.64,4.37"/><path class="cls-20" d="M189.9,67.78s-.3,1.69.3,2.99c.83,1.78,3.49,2.95,5.53.4.51-.64.73-1.29,1.3-2.49,0,0-2.7-2.65-7.13-.9Z"/><circle class="cls-37" cx="192.94" cy="69.62" r="1.14"/><circle class="cls-4" cx="194.23" cy="69.06" r=".47"/><ellipse class="cls-1" cx="194.23" cy="69.05" rx=".44" ry=".46" transform="translate(118.13 260.63) rotate(-87.91)"/><ellipse class="cls-3" cx="194.23" cy="69.04" rx=".42" ry=".45" transform="translate(118.15 260.62) rotate(-87.91)"/><ellipse class="cls-12" cx="194.24" cy="69.03" rx=".4" ry=".44" transform="translate(118.16 260.61) rotate(-87.91)"/><ellipse class="cls-14" cx="194.24" cy="69.02" rx=".37" ry=".43" transform="translate(118.17 260.6) rotate(-87.91)"/><ellipse class="cls-11" cx="194.24" cy="69.01" rx=".35" ry=".42" transform="translate(118.18 260.59) rotate(-87.91)"/><ellipse class="cls-13" cx="194.24" cy="69" rx=".33" ry=".42" transform="translate(118.19 260.58) rotate(-87.91)"/><ellipse class="cls-5" cx="194.24" cy="68.99" rx=".3" ry=".41" transform="translate(118.2 260.57) rotate(-87.91)"/><ellipse class="cls-7" cx="194.24" cy="68.98" rx=".28" ry=".4" transform="translate(118.21 260.56) rotate(-87.91)"/><ellipse class="cls-2" cx="194.24" cy="68.96" rx=".26" ry=".39" transform="translate(118.22 260.55) rotate(-87.91)"/><circle class="cls-19" cx="192.94" cy="69.62" r=".5"/><ellipse class="cls-23" cx="172.4" cy="90.47" rx="1.61" ry="1.03" transform="translate(-7.14 165.79) rotate(-50.45)"/><path class="cls-33" d="M24.4,469.23s1.53-11.52.29-12.8"/><rect class="cls-30" x="7.54" y="456.08" width="14.99" height="13.2" rx="4.85" ry="4.85" transform="translate(32.8 .1) rotate(4.06)"/><path class="cls-24" d="M162.32,107.18c-3.22,2.59,12.88,5.24,14.14,5.34.06,0,.12,0,.18,0,12.87-.09,14.6-7.79,14.6-7.79-2.89-1.77-11.56-2.89-11.56-2.89l-3.22,1.88-2.24-1.88s-3.34.43-6.95,2.47c-1.87,1.05-3.4,1.63-4.95,2.88Z"/><path class="cls-25" d="M75.22,508.67s-7.53,74.2-14.93,73.94c0,0,14.45,9.29,32.85,15.47,12.53,4.21,26.75,3.68,43.25,2.83,14.08-.73,34.24,1.17,45.72-9.23"/><path class="cls-25" d="M182.1,572.55s4.7,18.06,66.4,24.72c.69.27,37.12,6.67,63.94-14.79,0,0-19.31-79.15-16.87-81.02"/><path class="cls-38" d="M159.14,704.64s19.24,34.61-2.6,43.45"/><path class="cls-38" d="M133.23,704.64s-11.17,37.35,1.71,43.45"/><path class="cls-38" d="M225.78,696.72s-36.64,36.04,0,52.02"/><path class="cls-38" d="M243.52,697.37s16.77,44.98,0,50.72"/><path class="cls-28" d="M175.5,954.13s7.61,6.42,5.47,15.75c-.03.13-.08.25-.14.37-.18.36-.56,1.38-.12,2.84,0,0,.36,5.53-.91,6.99,0,0-7.38,3.51-7.2,4.64,0,0-3.28-6.51-3.79-6.2l5.42-8.51,2.73-2.48s1.52-2.64,1.08-5.27c0,0-.17-2.97-1.26-5.46-.24-.55-.59-1.11-.84-1.66-.17-.36-.21-.74-.44-1.01Z"/><path class="cls-15" d="M128.04,980.9s-2.33-1.99,4.08-7.51c0,0,5.27-7.81,5.64-9.1,0,0,6.05-10.21,9.53-11.07,0,0,3.81-1.89,10.9-1.09,0,0,7.45,1.73,9.21,5.88,0,0,2.87,4.55.65,11.42,0,0-2.45,7.06-.09,8.3,0,0,1.35-.22,4.65,6.99,0,0,.88-2.12,7.2-4.64,0,0,2.25-.35,1.92-1.5,0,0,.99,2.36.03,3.88,0,0,1.54,1.57-1.56,2.82,0,0-5.4,1.25-6.98,4.3,0,0-9.38,6.65-8.96,7.9,0,0-11.95,6.06-14.87,6.01,0,0-10.56,2.5-18.04.93,0,0-4.47-.49-8.52-1.03-4.7-.62-9.36-2.54-10.11-3.09,0,0-5.04-1.34-1.11-5.45l16.43-13.94Z"/><path class="cls-28" d="M171.6,986.95s-10.43,10.64-15.12,11.05c0,0-15.64,3.89-26.07,2.86,0,0-17.77.5-15.91-6.41.07-.24.22-.46.41-.62,1.89-1.63,12.48-10.82,14.53-13.46.42-.54.88-1.03,1.42-1.46,2.07-1.64,5.83-5.42,6.7-6.67,0,0,7.03-21.79,20.27-17.2,0,0,13.57,3.35,6.97,16.2-.54,1.05-.8,2.21-.71,3.39.21,2.77,1.05,6.9,2.18,7.73l5.32,4.59Z"/><path class="cls-15" d="M128.43,977.42s-9.14,10.91-9.98,11.62,9.59-8.14,9.59-8.14l.39-3.48Z"/><path class="cls-21" d="M168.88,963.74l3.79,5.92-4.71,8.06s-1.7-1.3-.8-4.8,1.81-8.03,1.73-9.18Z"/><path class="cls-15" d="M167.96,977.72l5.3-9.07s4.28-2.63,1.93-8.44c0,0-.27-5.38.31-6.08,0,0,2.69,4.68,2.55,8.13,0,0,1.04,4.23-2.72,6.77l-6.51,9.5-.85-.8Z"/><path class="cls-21" d="M180.92,970.11s-.91,1.05-.2,2.99c0,0,.11,6.76-.91,6.99,0,0,2.26-.14,1.92-1.5,0,0-.14-8.29-.71-8.92l-.1.45Z"/><path class="cls-26" d="M110.11,997.45s-3.61.55,0,19.93c0,0,1.91,4.43,18.32,4.54,0,0,10.76.66,19.07,0,6.29-.5,10.6-2.11,11.07-3.21,0,0,2.48-1.48,5.01-8.3.69-1.87,2-3.45,3.73-4.45,4.64-2.66,13.36-7.86,11.96-8.51,0,0,3.47-12.99,2.73-13.53l-5.78,2.9-5.31,4.45-10.17,7.68c-2.32,1.2-4.44,1.68-7.24,2.5-.64.19-1.29.37-1.94.52l-9.86,2.35c-2.98.71-6.07.85-9.11.41l-9.6-1.38c-3.04-.44-5.96-1.51-8.56-3.16l-4.35-2.75Z"/><path class="cls-28" d="M194.02,955.7s-7.61,6.42-5.47,15.75c.03.13.08.25.14.37.18.36.56,1.38.12,2.84,0,0-.36,5.53.91,6.99,0,0,7.38,3.51,7.2,4.64,0,0,3.28-6.51,3.79-6.2l-5.42-8.51-2.73-2.48s-1.52-2.64-1.08-5.27c0,0,.17-2.97,1.26-5.46.24-.55.59-1.11.84-1.66.17-.36.21-.74.44-1.01Z"/><path class="cls-15" d="M241.48,982.47s2.33-1.99-4.08-7.51c0,0-5.27-7.81-5.64-9.1,0,0-6.05-10.21-9.53-11.07,0,0-3.81-1.89-10.9-1.09,0,0-7.45,1.73-9.21,5.88,0,0-2.87,4.55-.65,11.42,0,0,2.45,7.06.09,8.3,0,0-1.35-.22-4.65,6.99,0,0-.88-2.12-7.2-4.64,0,0-2.25-.35-1.92-1.5,0,0-.99,2.36-.03,3.88,0,0-1.54,1.57,1.56,2.82,0,0,5.4,1.25,6.98,4.3,0,0,9.38,6.65,8.96,7.9,0,0,11.95,6.06,14.87,6.01,0,0,10.56,2.5,18.04.93,0,0,4.47-.49,8.52-1.03,4.7-.62,9.36-2.54,10.11-3.09,0,0,5.04-1.34,1.11-5.45l-16.43-13.94Z"/><path class="cls-28" d="M197.93,988.52s10.43,10.64,15.12,11.05c0,0,15.64,3.89,26.07,2.86,0,0,17.77.5,15.91-6.41-.07-.24-.22-.46-.41-.62-1.89-1.63-12.48-10.82-14.53-13.46-.42-.54-.88-1.03-1.42-1.46-2.07-1.64-5.83-5.42-6.7-6.67,0,0-7.03-21.79-20.27-17.2,0,0-13.57,3.35-6.97,16.2.54,1.05.8,2.21.71,3.39-.21,2.77-1.05,6.9-2.18,7.73l-5.32,4.59Z"/><path class="cls-15" d="M241.1,978.99s9.14,10.91,9.98,11.62-9.59-8.14-9.59-8.14l-.39-3.48Z"/><path class="cls-21" d="M200.64,965.31l-3.79,5.92,4.71,8.06s1.7-1.3.8-4.8-1.81-8.03-1.73-9.18Z"/><path class="cls-15" d="M201.56,979.29l-5.3-9.07s-4.28-2.63-1.93-8.44c0,0,.27-5.38-.31-6.08,0,0-2.69,4.68-2.55,8.13,0,0-1.04,4.23,2.72,6.77l6.51,9.5.85-.8Z"/><path class="cls-21" d="M188.61,971.68s.91,1.05.2,2.99c0,0-.11,6.76.91,6.99,0,0-2.26-.14-1.92-1.5,0,0,.14-8.29.71-8.92l.1.45Z"/><path class="cls-26" d="M259.42,999.02s3.61.55,0,19.93c0,0-1.91,4.43-18.32,4.54,0,0-10.76.66-19.07,0-6.29-.5-10.6-2.11-11.07-3.21,0,0-2.48-1.48-5.01-8.3-.69-1.87-2-3.45-3.73-4.45-4.64-2.66-13.36-7.86-11.96-8.51,0,0-3.47-12.99-2.73-13.53l5.78,2.9,5.31,4.45,10.17,7.68c2.32,1.2,4.44,1.68,7.24,2.5.64.19,1.29.37,1.94.52l9.86,2.35c2.98.71,6.07.85,9.11.41l9.6-1.38c3.04-.44,5.96-1.51,8.56-3.16l4.35-2.75Z"/><path class="cls-18" d="M108.7,1007.56s40.94,12.72,52.74-2.64c0,0,17.96-14.54,19.35-13.45"/><path class="cls-18" d="M260.62,1011.14s-40.07,11.82-51.87-3.53c0,0-18.52-15.19-19.91-14.09"/><ellipse class="cls-8" cx="145.39" cy="982.62" rx="6.76" ry="2.57"/><path class="cls-6" d="M145.39,985.53c-4.04,0-7.09-1.25-7.09-2.91s3.05-2.91,7.09-2.91,7.09,1.25,7.09,2.91-3.05,2.91-7.09,2.91ZM145.39,980.38c-3.78,0-6.42,1.18-6.42,2.24s2.64,2.24,6.42,2.24,6.42-1.18,6.42-2.24-2.64-2.24-6.42-2.24Z"/><path class="cls-6" d="M142.09,980.57c-2.75-2.76-3.78-4.79-3.13-6.2.87-1.91,4.5-1.68,4.66-1.67,2.18-.15,3.62.32,4.22,1.42,1.21,2.19-1.54,5.97-1.66,6.13l-.54-.39c.73-1,2.44-3.91,1.61-5.42-.47-.85-1.69-1.21-3.64-1.07-.97-.06-3.49.04-4.05,1.28-.35.77-.11,2.33,3,5.45l-.47.47Z"/><path class="cls-6" d="M143.62,980.27c-.37-.43-1.22-1.48-1.26-1.98l.66-.05c.02.19.53.93,1.11,1.6l-.51.43Z"/><rect class="cls-6" x="144.55" y="978.39" width=".67" height="1.67" transform="translate(-71.46 13.27) rotate(-4.21)"/><path class="cls-6" d="M151.06,981.43l-.31-.59c3.89-2.06,4.67-3.53,4.64-4.4-.04-1.03-1.27-1.59-1.28-1.59-1.89-.53-3.45-.37-4.6.48-2.05,1.51-2.16,4.77-2.16,4.8l-.67-.02c0-.15.11-3.61,2.43-5.32,1.32-.98,3.08-1.17,5.22-.57.11.04,1.67.74,1.72,2.19.06,1.54-1.62,3.22-5,5.01Z"/><path class="cls-6" d="M149.06,980.57c-.03-.84-.05-1.74.09-2.62l.66.1c-.13.82-.11,1.69-.08,2.5l-.67.02Z"/><path class="cls-6" d="M152.15,982.96v-.67c2.65-.03,9.84-.57,11.23-2.63.24-.36.29-.75.15-1.18-.52-.33-3.61-2.01-8.88.53l-.29-.6c6.15-2.96,9.51-.51,9.65-.41l.08.06.03.09c.26.69.2,1.32-.18,1.89-1.88,2.77-11.38,2.92-11.79,2.92Z"/><rect class="cls-6" x="151.5" y="980.76" width="2.47" height=".67" transform="translate(-411.98 164.41) rotate(-25.81)"/><path class="cls-6" d="M163.51,988.17c-1.93,0-5.57-.77-12.28-4.05l.29-.6c11.36,5.57,13.53,3.66,13.55,3.64.76-.55,1.57-1.28,1.38-1.92-.45-1.56-6-2.46-9.39-2.65l.04-.67c.95.06,9.27.61,9.99,3.13.23.81-.29,1.68-1.56,2.59-.15.15-.67.52-2.02.52Z"/><path class="cls-6" d="M155.67,984.21c-.99-.45-2.19-.52-3.36-.59l-.41-.03.04-.67.4.03c1.16.07,2.48.15,3.59.65l-.27.61Z"/><path class="cls-6" d="M160.12,993.28c-1.2,0-3.39-.63-7.54-2.79l-.08-.04-.05-.08c-.8-1.31-3.2-4.76-4.68-5l.11-.66c1.97.32,4.61,4.45,5.1,5.23,6.29,3.26,7.68,2.77,7.98,2.4.64-.77-.93-3.49-2.25-5.17l.52-.41c.59.75,3.44,4.55,2.23,6.01-.22.27-.59.51-1.34.51Z"/><path class="cls-6" d="M153.54,987.08c-.17-.33-2.13-1.42-3.84-2.22l.28-.6c1.49.7,4.02,1.97,4.2,2.65l-.64.18Z"/><path class="cls-6" d="M148.6,997.14c-1.41,0-2.96-1.31-4.61-3.89l.56-.36c1.64,2.58,3.15,3.8,4.37,3.55,2.05-.42,3.21-4.89,3.48-6.58l.66.11c-.04.27-1.08,6.52-4,7.13-.15.03-.3.05-.46.05Z"/><path class="cls-6" d="M138.72,998.59c-.86,0-1.48-.29-1.83-.88-1.72-2.85,4.14-11.85,4.81-12.86l.56.37c-1.77,2.66-6.07,10.04-4.8,12.15.27.44.8.62,1.62.54,1.53-.15,2.76-.82,3.65-1.99,2.73-3.59,1.53-10.75,1.52-10.82l.66-.11c.05.31,1.26,7.52-1.65,11.34-1.01,1.32-2.39,2.08-4.12,2.25-.15.01-.29.02-.43.02Z"/><path class="cls-6" d="M148.39,989.65h-.67c0-2.01-1.79-4.22-1.81-4.24l.52-.42c.08.1,1.97,2.42,1.96,4.67Z"/><path class="cls-6" d="M131.95,997.2c-.06,0-.11,0-.17-.01-.36-.05-.85-.29-1.11-1.12l-.03-.11.04-.1c.13-.36,3.15-8.89,8.69-12.24l.35.57c-5.01,3.03-8,10.78-8.37,11.78.19.5.44.54.53.55,1.56.23,5.52-4.81,7.64-8.04l.56.37c-.57.87-5.57,8.34-8.12,8.34Z"/><path class="cls-6" d="M137.39,987.85l-.56-.37c.91-1.38,2.44-2.35,3.93-3.22l.34.58c-1.42.83-2.88,1.74-3.71,3.01Z"/><path class="cls-6" d="M129.15,992.31c-.42,0-.77-.1-.99-.36-.45-.53-.57-1.64,2.56-5.6.24-.21,4.76-4.05,8.18-3.42l-.12.66c-3.1-.57-7.53,3.19-7.58,3.22-2.99,3.8-2.64,4.59-2.53,4.71.42.49,2.87-.4,4.9-1.54l.33.58c-.85.48-3.26,1.75-4.74,1.75Z"/><path class="cls-6" d="M138.62,982.64c-1.32-.27-2.67-.31-2.84-.08l-.55-.37c.49-.73,2.63-.38,3.52-.2l-.13.65Z"/><path class="cls-6" d="M138.77,982.32l-4.94-1.12c-2.11-.78-3.16-1.59-3.25-2.48-.07-.7.47-1.15.65-1.28,2.85-3.47,5.7-1.71,6.06-1.46,3.32,1.47,3.39,1.91,3.42,2.08l-.66.1s.02.07.02.07c-.18-.26-1.74-1.06-3.08-1.65l-.07-.04c-.1-.08-2.58-1.87-5.2,1.36l-.08.07s-.43.29-.39.68c.04.34.45,1.05,2.78,1.91l4.9,1.11-.15.65Z"/><path class="cls-6" d="M129.23,987.72c-.61,0-1.11-.16-1.49-.49-.81-.69-.79-1.85-.77-2.16-.26-.84-.16-1.6.3-2.25,1.5-2.13,6.42-2.28,6.62-2.29l.02.67s-4.79.15-6.1,2c-.35.49-.41,1.06-.19,1.72l.02.07v.07s-.12,1.11.53,1.65c.46.38,1.21.43,2.23.14l.18.64c-.5.14-.96.22-1.36.22Z"/><path class="cls-6" d="M140.69,980.83c-1.43-.99-3.18-2.09-3.52-2.12.02,0,.07,0,.13-.04l-.37-.56c.18-.12.53-.35,4.14,2.17l-.38.55Z"/><ellipse class="cls-8" cx="224.99" cy="985.16" rx="6.76" ry="2.57"/><path class="cls-6" d="M224.99,988.07c4.04,0,7.09-1.25,7.09-2.91s-3.05-2.91-7.09-2.91-7.09,1.25-7.09,2.91,3.05,2.91,7.09,2.91ZM224.99,982.92c3.78,0,6.42,1.18,6.42,2.24s-2.64,2.24-6.42,2.24-6.42-1.18-6.42-2.24,2.64-2.24,6.42-2.24Z"/><path class="cls-6" d="M228.28,983.1c2.75-2.76,3.78-4.79,3.13-6.2-.87-1.91-4.5-1.68-4.66-1.67-2.18-.15-3.62.32-4.22,1.42-1.21,2.19,1.54,5.97,1.66,6.13l.54-.39c-.73-1-2.44-3.91-1.61-5.42.47-.85,1.69-1.21,3.64-1.07.97-.06,3.49.04,4.05,1.28.35.77.11,2.33-3,5.45l.47.47Z"/><path class="cls-6" d="M226.75,982.8c.37-.43,1.22-1.48,1.26-1.98l-.66-.05c-.02.19-.53.93-1.11,1.6l.51.43Z"/><rect class="cls-6" x="224.66" y="981.42" width="1.67" height=".67" transform="translate(-770.17 1134.6) rotate(-85.79)"/><path class="cls-6" d="M219.31,983.97l.31-.59c-3.89-2.06-4.67-3.53-4.64-4.4.04-1.03,1.27-1.59,1.28-1.59,1.89-.53,3.45-.37,4.6.48,2.05,1.51,2.16,4.77,2.16,4.8l.67-.02c0-.15-.11-3.61-2.43-5.32-1.32-.98-3.08-1.17-5.22-.57-.11.04-1.67.74-1.72,2.19-.06,1.54,1.62,3.22,5,5.01Z"/><path class="cls-6" d="M221.31,983.1c.03-.84.05-1.74-.09-2.62l-.66.1c.13.82.11,1.69.08,2.5l.67.02Z"/><path class="cls-6" d="M218.23,985.49v-.67c-2.65-.03-9.84-.57-11.23-2.63-.24-.36-.29-.75-.15-1.18.52-.33,3.61-2.01,8.88.53l.29-.6c-6.15-2.96-9.51-.51-9.65-.41l-.08.06-.03.09c-.26.69-.2,1.32.18,1.89,1.88,2.77,11.38,2.92,11.79,2.92Z"/><rect class="cls-6" x="217.31" y="982.39" width=".67" height="2.47" transform="translate(-762.6 751.22) rotate(-64.19)"/><path class="cls-6" d="M206.86,990.7c1.93,0,5.57-.77,12.28-4.05l-.29-.6c-11.36,5.57-13.53,3.66-13.55,3.64-.76-.55-1.57-1.28-1.38-1.92.45-1.56,6-2.46,9.39-2.65l-.04-.67c-.95.06-9.27.61-9.99,3.13-.23.81.29,1.68,1.56,2.59.15.15.67.52,2.02.52Z"/><path class="cls-6" d="M214.71,986.75c.99-.45,2.19-.52,3.36-.59l.41-.03-.04-.67-.4.03c-1.16.07-2.48.15-3.59.65l.27.61Z"/><path class="cls-6" d="M210.25,995.81c1.2,0,3.39-.63,7.54-2.79l.08-.04.05-.08c.8-1.31,3.2-4.76,4.68-5l-.11-.66c-1.97.32-4.61,4.45-5.1,5.23-6.29,3.26-7.68,2.77-7.98,2.4-.64-.77.93-3.49,2.25-5.17l-.52-.41c-.59.75-3.44,4.55-2.23,6.01.22.27.59.51,1.34.51Z"/><path class="cls-6" d="M216.83,989.62c.17-.33,2.13-1.42,3.84-2.22l-.28-.6c-1.49.7-4.02,1.97-4.2,2.65l.64.18Z"/><path class="cls-6" d="M221.77,999.67c1.41,0,2.96-1.31,4.61-3.89l-.56-.36c-1.64,2.58-3.15,3.8-4.37,3.55-2.05-.42-3.21-4.89-3.48-6.58l-.66.11c.04.27,1.08,6.52,4,7.13.15.03.3.05.46.05Z"/><path class="cls-6" d="M231.65,1001.13c.86,0,1.48-.29,1.83-.88,1.72-2.85-4.14-11.85-4.81-12.86l-.56.37c1.77,2.66,6.07,10.04,4.8,12.15-.27.44-.8.62-1.62.54-1.53-.15-2.76-.82-3.65-1.99-2.73-3.59-1.53-10.75-1.52-10.82l-.66-.11c-.05.31-1.26,7.52,1.65,11.34,1.01,1.32,2.39,2.08,4.12,2.25.15.01.29.02.43.02Z"/><path class="cls-6" d="M221.98,992.19h.67c0-2.01,1.79-4.22,1.81-4.24l-.52-.42c-.08.1-1.97,2.42-1.96,4.67Z"/><path class="cls-6" d="M238.43,999.74c.06,0,.11,0,.17-.01.36-.05.85-.29,1.11-1.12l.03-.11-.04-.1c-.13-.36-3.15-8.89-8.69-12.24l-.35.57c5.01,3.03,8,10.78,8.37,11.78-.19.5-.44.54-.53.55-1.56.23-5.52-4.81-7.64-8.04l-.56.37c.57.87,5.57,8.34,8.12,8.34Z"/><path class="cls-6" d="M232.98,990.39l.56-.37c-.91-1.38-2.44-2.35-3.93-3.22l-.34.58c1.42.83,2.88,1.74,3.71,3.01Z"/><path class="cls-6" d="M241.23,994.85c.42,0,.77-.1.99-.36.45-.53.57-1.64-2.56-5.6-.24-.21-4.76-4.05-8.18-3.42l.12.66c3.1-.57,7.53,3.19,7.58,3.22,2.99,3.8,2.64,4.59,2.53,4.71-.42.49-2.87-.4-4.9-1.54l-.33.58c.85.48,3.26,1.75,4.74,1.75Z"/><path class="cls-6" d="M231.76,985.17c1.32-.27,2.67-.31,2.84-.08l.55-.37c-.49-.73-2.63-.38-3.52-.2l.13.65Z"/><path class="cls-6" d="M231.61,984.85l4.94-1.12c2.11-.78,3.16-1.59,3.25-2.48.07-.7-.47-1.15-.65-1.28-2.85-3.47-5.7-1.71-6.06-1.46-3.32,1.47-3.39,1.91-3.42,2.08l.66.1s-.02.07-.02.07c.18-.26,1.74-1.06,3.08-1.65l.07-.04c.1-.08,2.58-1.87,5.2,1.36l.08.07s.43.29.39.68c-.04.34-.45,1.05-2.78,1.91l-4.9,1.11.15.65Z"/><path class="cls-6" d="M241.14,990.26c.61,0,1.11-.16,1.49-.49.81-.69.79-1.85.77-2.16.26-.84.16-1.6-.3-2.25-1.5-2.13-6.42-2.28-6.62-2.29l-.02.67s4.79.15,6.1,2c.35.49.41,1.06.19,1.72l-.02.07v.07s.12,1.11-.53,1.65c-.46.38-1.21.43-2.23.14l-.18.64c.5.14.96.22,1.36.22Z"/><path class="cls-6" d="M229.68,983.36c1.43-.99,3.18-2.09,3.52-2.12-.02,0-.07,0-.13-.04l.37-.56c-.18-.12-.53-.35-4.14,2.17l.38.55Z"/></g></svg>